<?xml version="1.0" encoding="UTF-8" standalone="no"?><svg xmlns="http://www.w3.org/2000/svg" xmlns:xlink="http://www.w3.org/1999/xlink" contentScriptType="application/ecmascript" contentStyleType="text/css" height="980px" preserveAspectRatio="none" style="width:406px;height:980px;" version="1.1" viewBox="0 0 406 980" width="406px" zoomAndPan="magnify"><defs><filter height="300%" id="f55voy840rqcl" width="300%" x="-1" y="-1"><feGaussianBlur result="blurOut" stdDeviation="2.0"/><feColorMatrix in="blurOut" result="blurOut2" type="matrix" values="0 0 0 0 0 0 0 0 0 0 0 0 0 0 0 0 0 0 .4 0"/><feOffset dx="4.0" dy="4.0" in="blurOut2" result="blurOut3"/><feBlend in="SourceGraphic" in2="blurOut3" mode="normal"/></filter></defs><g><text fill="#000000" font-family="sans-serif" font-size="18" lengthAdjust="spacingAndGlyphs" text-decoration="underline" textLength="198" x="98" y="18.6855">CLIENT's Class Diagram</text><text fill="#000000" font-family="sans-serif" font-size="18" lengthAdjust="spacingAndGlyphs" textLength="0" x="199.5" y="41.3262"/><!--MD5=[432dd831305d7709bed0fe1447e3cfc7]
cluster it.polimi.ingsw--><polygon fill="#FFFFFF" filter="url(#f55voy840rqcl)" points="58,184.2813,164,184.2813,171,207.8906,348,207.8906,348,913.2813,58,913.2813,58,184.2813" style="stroke: #000000; stroke-width: 1.5;"/><line style="stroke: #000000; stroke-width: 1.5;" x1="58" x2="171" y1="207.8906" y2="207.8906"/><text fill="#000000" font-family="sans-serif" font-size="14" font-weight="bold" lengthAdjust="spacingAndGlyphs" textLength="100" x="62" y="200.8145">it.polimi.ingsw</text><!--MD5=[1051524154ce11174f76d97393e7fa59]
cluster it.polimi.ingsw.network--><polygon fill="#FFFFFF" filter="url(#f55voy840rqcl)" points="82,228.2813,145,228.2813,152,251.8906,324,251.8906,324,889.2813,82,889.2813,82,228.2813" style="stroke: #000000; stroke-width: 1.5;"/><line style="stroke: #000000; stroke-width: 1.5;" x1="82" x2="152" y1="251.8906" y2="251.8906"/><text fill="#000000" font-family="sans-serif" font-size="14" font-weight="bold" lengthAdjust="spacingAndGlyphs" textLength="57" x="86" y="244.8145">network</text><!--MD5=[bf7d57d77e8f45216f1e476cae5c6d8e]
cluster it.polimi.ingsw.network.client--><polygon fill="#FFFFFF" filter="url(#f55voy840rqcl)" points="106,272.2813,151,272.2813,158,295.8906,300,295.8906,300,761.2813,106,761.2813,106,272.2813" style="stroke: #000000; stroke-width: 1.5;"/><line style="stroke: #000000; stroke-width: 1.5;" x1="106" x2="158" y1="295.8906" y2="295.8906"/><text fill="#000000" font-family="sans-serif" font-size="14" font-weight="bold" lengthAdjust="spacingAndGlyphs" textLength="39" x="110" y="288.8145">client</text><!--MD5=[7db3c59d38ae5b37b484eb2df9368145]
cluster java.util--><polygon fill="#FFFFFF" filter="url(#f55voy840rqcl)" points="141,51.2813,202,51.2813,209,74.8906,265,74.8906,265,151.2813,141,151.2813,141,51.2813" style="stroke: #000000; stroke-width: 1.5;"/><line style="stroke: #000000; stroke-width: 1.5;" x1="141" x2="209" y1="74.8906" y2="74.8906"/><text fill="#000000" font-family="sans-serif" font-size="14" font-weight="bold" lengthAdjust="spacingAndGlyphs" textLength="55" x="145" y="67.8145">java.util</text><!--MD5=[1e8c947f8210394413475712e15072ae]
class it.polimi.ingsw.network.ICommandReceiver--><rect fill="#FEFECE" filter="url(#f55voy840rqcl)" height="48" id="it.polimi.ingsw.network.ICommandReceiver" style="stroke: #A80036; stroke-width: 1.5;" width="142" x="129" y="825.2813"/><ellipse cx="144" cy="841.2813" fill="#ADD1B2" rx="11" ry="11" style="stroke: #A80036; stroke-width: 1.0;"/><path d="M146.7656,837.1563 Q146.9219,836.9375 147.1094,836.8281 Q147.2969,836.7188 147.5156,836.7188 Q147.8906,836.7188 148.125,836.9844 Q148.3594,837.2344 148.3594,837.8438 L148.3594,839.2969 Q148.3594,839.9063 148.125,840.1719 Q147.8906,840.4375 147.5156,840.4375 Q147.1719,840.4375 146.9688,840.2344 Q146.7656,840.0469 146.6563,839.5313 Q146.6094,839.1719 146.4219,838.9844 Q146.0938,838.6094 145.4844,838.3906 Q144.875,838.1719 144.25,838.1719 Q143.4844,838.1719 142.8438,838.5 Q142.2188,838.8281 141.7188,839.5781 Q141.2344,840.3281 141.2344,841.3594 L141.2344,842.4531 Q141.2344,843.6875 142.125,844.5156 Q143.0156,845.3281 144.6094,845.3281 Q145.5469,845.3281 146.2031,845.0781 Q146.5938,844.9219 147.0156,844.4844 Q147.2813,844.2188 147.4219,844.1406 Q147.5781,844.0625 147.7813,844.0625 Q148.1094,844.0625 148.3594,844.3281 Q148.625,844.5781 148.625,844.9219 Q148.625,845.2656 148.2813,845.6719 Q147.7813,846.25 146.9844,846.5781 Q145.9063,847.0313 144.6094,847.0313 Q143.0938,847.0313 141.8906,846.4063 Q140.9063,845.9063 140.2188,844.8438 Q139.5313,843.7656 139.5313,842.4844 L139.5313,841.3281 Q139.5313,840 140.1406,838.8594 Q140.7656,837.7031 141.8594,837.0938 Q142.9531,836.4688 144.1875,836.4688 Q144.9219,836.4688 145.5625,836.6406 Q146.2188,836.7969 146.7656,837.1563 Z "/><text fill="#000000" font-family="sans-serif" font-size="12" lengthAdjust="spacingAndGlyphs" textLength="110" x="158" y="846.1914">ICommandReceiver</text><line style="stroke: #A80036; stroke-width: 1.5;" x1="130" x2="270" y1="857.2813" y2="857.2813"/><line style="stroke: #A80036; stroke-width: 1.5;" x1="130" x2="270" y1="865.2813" y2="865.2813"/><!--MD5=[f434d44245e47afea72e6c6c1eeab62f]
class it.polimi.ingsw.network.client.Client--><rect fill="#FEFECE" filter="url(#f55voy840rqcl)" height="283.2109" id="it.polimi.ingsw.network.client.Client" style="stroke: #A80036; stroke-width: 1.5;" width="161" x="122.5" y="462.2813"/><ellipse cx="182.75" cy="478.2813" fill="#ADD1B2" rx="11" ry="11" style="stroke: #A80036; stroke-width: 1.0;"/><path d="M185.5156,474.1563 Q185.6719,473.9375 185.8594,473.8281 Q186.0469,473.7188 186.2656,473.7188 Q186.6406,473.7188 186.875,473.9844 Q187.1094,474.2344 187.1094,474.8438 L187.1094,476.2969 Q187.1094,476.9063 186.875,477.1719 Q186.6406,477.4375 186.2656,477.4375 Q185.9219,477.4375 185.7188,477.2344 Q185.5156,477.0469 185.4063,476.5313 Q185.3594,476.1719 185.1719,475.9844 Q184.8438,475.6094 184.2344,475.3906 Q183.625,475.1719 183,475.1719 Q182.2344,475.1719 181.5938,475.5 Q180.9688,475.8281 180.4688,476.5781 Q179.9844,477.3281 179.9844,478.3594 L179.9844,479.4531 Q179.9844,480.6875 180.875,481.5156 Q181.7656,482.3281 183.3594,482.3281 Q184.2969,482.3281 184.9531,482.0781 Q185.3438,481.9219 185.7656,481.4844 Q186.0313,481.2188 186.1719,481.1406 Q186.3281,481.0625 186.5313,481.0625 Q186.8594,481.0625 187.1094,481.3281 Q187.375,481.5781 187.375,481.9219 Q187.375,482.2656 187.0313,482.6719 Q186.5313,483.25 185.7344,483.5781 Q184.6563,484.0313 183.3594,484.0313 Q181.8438,484.0313 180.6406,483.4063 Q179.6563,482.9063 178.9688,481.8438 Q178.2813,480.7656 178.2813,479.4844 L178.2813,478.3281 Q178.2813,477 178.8906,475.8594 Q179.5156,474.7031 180.6094,474.0938 Q181.7031,473.4688 182.9375,473.4688 Q183.6719,473.4688 184.3125,473.6406 Q184.9688,473.7969 185.5156,474.1563 Z "/><text fill="#000000" font-family="sans-serif" font-size="12" lengthAdjust="spacingAndGlyphs" textLength="32" x="203.25" y="483.1914">Client</text><line style="stroke: #A80036; stroke-width: 1.5;" x1="123.5" x2="282.5" y1="494.2813" y2="494.2813"/><polygon fill="none" points="133.5,501.2813,129.5,507.2813,137.5,507.2813" style="stroke: #1963A0; stroke-width: 1.0;"/><text fill="#000000" font-family="sans-serif" font-size="11" lengthAdjust="spacingAndGlyphs" textLength="135" x="142.5" y="509.7002">shouldStop : AtomicBoolean</text><rect fill="none" height="6" style="stroke: #C82930; stroke-width: 1.0;" width="6" x="130.5" y="516.1172"/><text fill="#000000" font-family="sans-serif" font-size="11" lengthAdjust="spacingAndGlyphs" textLength="28" x="142.5" y="523.5361">id : int</text><rect fill="none" height="6" style="stroke: #C82930; stroke-width: 1.0;" width="6" x="130.5" y="529.9531"/><text fill="#000000" font-family="sans-serif" font-size="11" lengthAdjust="spacingAndGlyphs" textLength="95" x="142.5" y="537.3721">in : BufferedReader</text><rect fill="none" height="6" style="stroke: #C82930; stroke-width: 1.0;" width="6" x="130.5" y="543.7891"/><text fill="#000000" font-family="sans-serif" font-size="11" lengthAdjust="spacingAndGlyphs" textLength="74" x="142.5" y="551.208">out : PrintWriter</text><rect fill="none" height="6" style="stroke: #C82930; stroke-width: 1.0;" width="6" x="130.5" y="557.625"/><text fill="#000000" font-family="sans-serif" font-size="11" lengthAdjust="spacingAndGlyphs" textLength="81" x="142.5" y="565.0439">pingTimer : Timer</text><rect fill="none" height="6" style="stroke: #C82930; stroke-width: 1.0;" width="6" x="130.5" y="571.4609"/><text fill="#000000" font-family="sans-serif" font-size="11" lengthAdjust="spacingAndGlyphs" textLength="86" x="142.5" y="578.8799">s_socket : Socket</text><line style="stroke: #A80036; stroke-width: 1.5;" x1="123.5" x2="282.5" y1="585.2969" y2="585.2969"/><ellipse cx="133.5" cy="596.2969" fill="#84BE84" rx="3" ry="3" style="stroke: #038048; stroke-width: 1.0;"/><text fill="#000000" font-family="sans-serif" font-size="11" lengthAdjust="spacingAndGlyphs" textLength="34" x="142.5" y="600.7158">Client()</text><ellipse cx="133.5" cy="610.1328" fill="#84BE84" rx="3" ry="3" style="stroke: #038048; stroke-width: 1.0;"/><text fill="#000000" font-family="sans-serif" font-size="11" lengthAdjust="spacingAndGlyphs" textLength="47" x="142.5" y="614.5518">connect()</text><ellipse cx="133.5" cy="623.9688" fill="#84BE84" rx="3" ry="3" style="stroke: #038048; stroke-width: 1.0;"/><text fill="#000000" font-family="sans-serif" font-size="11" lengthAdjust="spacingAndGlyphs" textLength="61" x="142.5" y="628.3877">disconnect()</text><ellipse cx="133.5" cy="637.8047" fill="#84BE84" rx="3" ry="3" style="stroke: #038048; stroke-width: 1.0;"/><text fill="#000000" font-family="sans-serif" font-size="11" lengthAdjust="spacingAndGlyphs" textLength="31" x="142.5" y="642.2236">getId()</text><ellipse cx="133.5" cy="651.6406" fill="#84BE84" rx="3" ry="3" style="stroke: #038048; stroke-width: 1.0;"/><text fill="#000000" font-family="sans-serif" font-size="11" lengthAdjust="spacingAndGlyphs" textLength="87" x="142.5" y="656.0596">removeReceiver()</text><ellipse cx="133.5" cy="665.4766" fill="#84BE84" rx="3" ry="3" style="stroke: #038048; stroke-width: 1.0;"/><text fill="#000000" font-family="sans-serif" font-size="11" lengthAdjust="spacingAndGlyphs" textLength="32" x="142.5" y="669.8955">send()</text><ellipse cx="133.5" cy="679.3125" fill="#84BE84" rx="3" ry="3" style="stroke: #038048; stroke-width: 1.0;"/><text fill="#000000" font-family="sans-serif" font-size="11" lengthAdjust="spacingAndGlyphs" textLength="66" x="142.5" y="683.7314">setReceiver()</text><rect fill="#F24D5C" height="6" style="stroke: #C82930; stroke-width: 1.0;" width="6" x="130.5" y="690.1484"/><text fill="#000000" font-family="sans-serif" font-size="11" lengthAdjust="spacingAndGlyphs" textLength="60" x="142.5" y="697.5674">deserialize()</text><rect fill="#F24D5C" height="6" style="stroke: #C82930; stroke-width: 1.0;" width="6" x="130.5" y="703.9844"/><text fill="#000000" font-family="sans-serif" font-size="11" lengthAdjust="spacingAndGlyphs" textLength="73" x="142.5" y="711.4033">runReadLoop()</text><rect fill="#F24D5C" height="6" style="stroke: #C82930; stroke-width: 1.0;" width="6" x="130.5" y="717.8203"/><text fill="#000000" font-family="sans-serif" font-size="11" lengthAdjust="spacingAndGlyphs" textLength="62" x="142.5" y="725.2393">setUPTimer()</text><rect fill="#F24D5C" height="6" style="stroke: #C82930; stroke-width: 1.0;" width="6" x="130.5" y="731.6563"/><text fill="#000000" font-family="sans-serif" font-size="11" lengthAdjust="spacingAndGlyphs" textLength="111" x="142.5" y="739.0752">shutdownConnection()</text><!--MD5=[c81d4b75501eb6976ab2515d33ccaf95]
class it.polimi.ingsw.network.client.PingTask--><rect fill="#FEFECE" filter="url(#f55voy840rqcl)" height="75.6719" id="it.polimi.ingsw.network.client.PingTask" style="stroke: #A80036; stroke-width: 1.5;" width="84" x="161" y="308.2813"/><ellipse cx="176" cy="324.2813" fill="#ADD1B2" rx="11" ry="11" style="stroke: #A80036; stroke-width: 1.0;"/><path d="M178.7656,320.1563 Q178.9219,319.9375 179.1094,319.8281 Q179.2969,319.7188 179.5156,319.7188 Q179.8906,319.7188 180.125,319.9844 Q180.3594,320.2344 180.3594,320.8438 L180.3594,322.2969 Q180.3594,322.9063 180.125,323.1719 Q179.8906,323.4375 179.5156,323.4375 Q179.1719,323.4375 178.9688,323.2344 Q178.7656,323.0469 178.6563,322.5313 Q178.6094,322.1719 178.4219,321.9844 Q178.0938,321.6094 177.4844,321.3906 Q176.875,321.1719 176.25,321.1719 Q175.4844,321.1719 174.8438,321.5 Q174.2188,321.8281 173.7188,322.5781 Q173.2344,323.3281 173.2344,324.3594 L173.2344,325.4531 Q173.2344,326.6875 174.125,327.5156 Q175.0156,328.3281 176.6094,328.3281 Q177.5469,328.3281 178.2031,328.0781 Q178.5938,327.9219 179.0156,327.4844 Q179.2813,327.2188 179.4219,327.1406 Q179.5781,327.0625 179.7813,327.0625 Q180.1094,327.0625 180.3594,327.3281 Q180.625,327.5781 180.625,327.9219 Q180.625,328.2656 180.2813,328.6719 Q179.7813,329.25 178.9844,329.5781 Q177.9063,330.0313 176.6094,330.0313 Q175.0938,330.0313 173.8906,329.4063 Q172.9063,328.9063 172.2188,327.8438 Q171.5313,326.7656 171.5313,325.4844 L171.5313,324.3281 Q171.5313,323 172.1406,321.8594 Q172.7656,320.7031 173.8594,320.0938 Q174.9531,319.4688 176.1875,319.4688 Q176.9219,319.4688 177.5625,319.6406 Q178.2188,319.7969 178.7656,320.1563 Z "/><text fill="#000000" font-family="sans-serif" font-size="12" lengthAdjust="spacingAndGlyphs" textLength="52" x="190" y="329.1914">PingTask</text><line style="stroke: #A80036; stroke-width: 1.5;" x1="162" x2="244" y1="340.2813" y2="340.2813"/><line style="stroke: #A80036; stroke-width: 1.5;" x1="162" x2="244" y1="348.2813" y2="348.2813"/><ellipse cx="172" cy="359.2813" fill="#84BE84" rx="3" ry="3" style="stroke: #038048; stroke-width: 1.0;"/><text fill="#000000" font-family="sans-serif" font-size="11" lengthAdjust="spacingAndGlyphs" textLength="24" x="181" y="363.7002">run()</text><polygon fill="#4177AF" points="172,369.1172,168,375.1172,176,375.1172" style="stroke: #1963A0; stroke-width: 1.0;"/><text fill="#000000" font-family="sans-serif" font-size="11" lengthAdjust="spacingAndGlyphs" textLength="51" x="181" y="377.5361">PingTask()</text><!--MD5=[ad113b661ca3197b37140075903a870b]
class java.util.TimerTask--><rect fill="#FEFECE" filter="url(#f55voy840rqcl)" height="48" id="java.util.TimerTask" style="stroke: #A80036; stroke-width: 1.5;" width="91" x="157.5" y="87.2813"/><ellipse cx="172.5" cy="103.2813" fill="#ADD1B2" rx="11" ry="11" style="stroke: #A80036; stroke-width: 1.0;"/><path d="M175.2656,99.1563 Q175.4219,98.9375 175.6094,98.8281 Q175.7969,98.7188 176.0156,98.7188 Q176.3906,98.7188 176.625,98.9844 Q176.8594,99.2344 176.8594,99.8438 L176.8594,101.2969 Q176.8594,101.9063 176.625,102.1719 Q176.3906,102.4375 176.0156,102.4375 Q175.6719,102.4375 175.4688,102.2344 Q175.2656,102.0469 175.1563,101.5313 Q175.1094,101.1719 174.9219,100.9844 Q174.5938,100.6094 173.9844,100.3906 Q173.375,100.1719 172.75,100.1719 Q171.9844,100.1719 171.3438,100.5 Q170.7188,100.8281 170.2188,101.5781 Q169.7344,102.3281 169.7344,103.3594 L169.7344,104.4531 Q169.7344,105.6875 170.625,106.5156 Q171.5156,107.3281 173.1094,107.3281 Q174.0469,107.3281 174.7031,107.0781 Q175.0938,106.9219 175.5156,106.4844 Q175.7813,106.2188 175.9219,106.1406 Q176.0781,106.0625 176.2813,106.0625 Q176.6094,106.0625 176.8594,106.3281 Q177.125,106.5781 177.125,106.9219 Q177.125,107.2656 176.7813,107.6719 Q176.2813,108.25 175.4844,108.5781 Q174.4063,109.0313 173.1094,109.0313 Q171.5938,109.0313 170.3906,108.4063 Q169.4063,107.9063 168.7188,106.8438 Q168.0313,105.7656 168.0313,104.4844 L168.0313,103.3281 Q168.0313,102 168.6406,100.8594 Q169.2656,99.7031 170.3594,99.0938 Q171.4531,98.4688 172.6875,98.4688 Q173.4219,98.4688 174.0625,98.6406 Q174.7188,98.7969 175.2656,99.1563 Z "/><text fill="#000000" font-family="sans-serif" font-size="12" lengthAdjust="spacingAndGlyphs" textLength="59" x="186.5" y="108.1914">TimerTask</text><line style="stroke: #A80036; stroke-width: 1.5;" x1="158.5" x2="247.5" y1="119.2813" y2="119.2813"/><line style="stroke: #A80036; stroke-width: 1.5;" x1="158.5" x2="247.5" y1="127.2813" y2="127.2813"/><!--MD5=[4f0870a7d88b69f363fea40e812aca37]
reverse link it.polimi.ingsw.network.client.Client to it.polimi.ingsw.network.ICommandReceiver--><path d="M201.104,758.6803 C200.784,784.6403 200.49,808.4993 200.286,825.0583 " fill="none" id="it.polimi.ingsw.network.client.Client&lt;-it.polimi.ingsw.network.ICommandReceiver" style="stroke: #A80036; stroke-width: 1.0;"/><polygon fill="#FFFFFF" points="201.268,745.3683,197.1945,751.3186,201.1203,757.3673,205.1938,751.417,201.268,745.3683" style="stroke: #A80036; stroke-width: 1.0;"/><text fill="#000000" font-family="sans-serif" font-size="13" lengthAdjust="spacingAndGlyphs" textLength="106" x="201" y="791.7764">commandReceiver</text><!--MD5=[9e477113a945873ffb974747ddd15c4c]
reverse link java.util.TimerTask to it.polimi.ingsw.network.client.PingTask--><path d="M203,155.7642 C203,199.6203 203,266.6052 203,308.0762 " fill="none" id="java.util.TimerTask&lt;-it.polimi.ingsw.network.client.PingTask" style="stroke: #A80036; stroke-width: 1.0;"/><polygon fill="none" points="196,155.4742,203,135.4742,210,155.4742,196,155.4742" style="stroke: #A80036; stroke-width: 1.0;"/><!--MD5=[5cd7c1100eda33e36eba3fc62128c09d]
reverse link it.polimi.ingsw.network.client.PingTask to it.polimi.ingsw.network.client.Client--><path d="M203,397.5343 C203,416.4733 203,439.0653 203,462.2233 " fill="none" id="it.polimi.ingsw.network.client.PingTask&lt;-it.polimi.ingsw.network.client.Client" style="stroke: #A80036; stroke-width: 1.0;"/><polygon fill="#FFFFFF" points="203,384.4333,199,390.4333,203,396.4333,207,390.4333,203,384.4333" style="stroke: #A80036; stroke-width: 1.0;"/><text fill="#000000" font-family="sans-serif" font-size="13" lengthAdjust="spacingAndGlyphs" textLength="31" x="204" y="428.7764">client</text><text fill="#888888" font-family="sans-serif" font-size="10" lengthAdjust="spacingAndGlyphs" textLength="0" x="394" y="929.6621"/><text fill="#888888" font-family="sans-serif" font-size="10" lengthAdjust="spacingAndGlyphs" textLength="0" x="394" y="942.2402"/><text fill="#888888" font-family="sans-serif" font-size="10" lengthAdjust="spacingAndGlyphs" textLength="392" x="2" y="954.8184">PlantUML diagram generated by SketchIt! (https://bitbucket.org/pmesmeur/sketch.it)</text><text fill="#888888" font-family="sans-serif" font-size="10" lengthAdjust="spacingAndGlyphs" textLength="394" x="0" y="967.3965">For more information about this tool, please contact philippe.mesmeur@gmail.com</text><!--MD5=[f036236bab4cf056989b6a1d805c811c]
@startuml

title __CLIENT's Class Diagram__\n

  namespace it.polimi.ingsw {
    namespace network {
      namespace client {
        class it.polimi.ingsw.network.client.Client {
            ~ shouldStop : AtomicBoolean
            - id : int
            - in : BufferedReader
            - out : PrintWriter
            - pingTimer : Timer
            - s_socket : Socket
            + Client()
            + connect()
            + disconnect()
            + getId()
            + removeReceiver()
            + send()
            + setReceiver()
            - deserialize()
            - runReadLoop()
            - setUPTimer()
            - shutdownConnection()
        }
      }
    }
  }
  

  namespace it.polimi.ingsw {
    namespace network {
      namespace client {
        class it.polimi.ingsw.network.client.PingTask {
            + run()
            ~ PingTask()
        }
      }
    }
  }
  

  it.polimi.ingsw.network.client.Client o- - it.polimi.ingsw.network.ICommandReceiver : commandReceiver
  it.polimi.ingsw.network.client.PingTask -up-|> java.util.TimerTask
  it.polimi.ingsw.network.client.PingTask o- - it.polimi.ingsw.network.client.Client : client


right footer


PlantUML diagram generated by SketchIt! (https://bitbucket.org/pmesmeur/sketch.it)
For more information about this tool, please contact philippe.mesmeur@gmail.com
endfooter

@enduml

PlantUML version 1.2020.14(Sat Jun 20 16:14:34 CEST 2020)
(GPL source distribution)
Java Runtime: Java(TM) SE Runtime Environment
JVM: Java HotSpot(TM) 64-Bit Server VM
Default Encoding: Cp1252
Language: it
Country: IT
--></g></svg>