<?xml version="1.0" encoding="UTF-8" standalone="no"?><svg xmlns="http://www.w3.org/2000/svg" xmlns:xlink="http://www.w3.org/1999/xlink" contentScriptType="application/ecmascript" contentStyleType="text/css" height="615px" preserveAspectRatio="none" style="width:832px;height:615px;" version="1.1" viewBox="0 0 832 615" width="832px" zoomAndPan="magnify"><defs><filter height="300%" id="fgvyucqugi7k6" width="300%" x="-1" y="-1"><feGaussianBlur result="blurOut" stdDeviation="2.0"/><feColorMatrix in="blurOut" result="blurOut2" type="matrix" values="0 0 0 0 0 0 0 0 0 0 0 0 0 0 0 0 0 0 .4 0"/><feOffset dx="4.0" dy="4.0" in="blurOut2" result="blurOut3"/><feBlend in="SourceGraphic" in2="blurOut3" mode="normal"/></filter></defs><g><text fill="#000000" font-family="sans-serif" font-size="18" lengthAdjust="spacingAndGlyphs" text-decoration="underline" textLength="224" x="295" y="18.6855">COMPACT's Class Diagram</text><text fill="#000000" font-family="sans-serif" font-size="18" lengthAdjust="spacingAndGlyphs" textLength="0" x="409.5" y="41.3262"/><!--MD5=[432dd831305d7709bed0fe1447e3cfc7]
cluster it.polimi.ingsw--><polygon fill="#FFFFFF" filter="url(#fgvyucqugi7k6)" points="16,51.2813,122,51.2813,129,74.8906,810,74.8906,810,398.2813,16,398.2813,16,51.2813" style="stroke: #000000; stroke-width: 1.5;"/><line style="stroke: #000000; stroke-width: 1.5;" x1="16" x2="129" y1="74.8906" y2="74.8906"/><text fill="#000000" font-family="sans-serif" font-size="14" font-weight="bold" lengthAdjust="spacingAndGlyphs" textLength="100" x="20" y="67.8145">it.polimi.ingsw</text><!--MD5=[106f56e6244fe5b7471b70ef6727658c]
cluster it.polimi.ingsw.controller--><polygon fill="#FFFFFF" filter="url(#fgvyucqugi7k6)" points="40,95.2813,115,95.2813,122,118.8906,786,118.8906,786,374.2813,40,374.2813,40,95.2813" style="stroke: #000000; stroke-width: 1.5;"/><line style="stroke: #000000; stroke-width: 1.5;" x1="40" x2="122" y1="118.8906" y2="118.8906"/><text fill="#000000" font-family="sans-serif" font-size="14" font-weight="bold" lengthAdjust="spacingAndGlyphs" textLength="69" x="44" y="111.8145">controller</text><!--MD5=[966c301a7ced1076d97751c0d52e65d3]
cluster it.polimi.ingsw.controller.compact--><polygon fill="#FFFFFF" filter="url(#fgvyucqugi7k6)" points="64,139.2813,129,139.2813,136,162.8906,762,162.8906,762,350.2813,64,350.2813,64,139.2813" style="stroke: #000000; stroke-width: 1.5;"/><line style="stroke: #000000; stroke-width: 1.5;" x1="64" x2="136" y1="162.8906" y2="162.8906"/><text fill="#000000" font-family="sans-serif" font-size="14" font-weight="bold" lengthAdjust="spacingAndGlyphs" textLength="59" x="68" y="155.8145">compact</text><!--MD5=[61c82503cdacf30886c9b167040ac8ed]
cluster it.polimi.ingsw.game--><polygon fill="#FFFFFF" filter="url(#fgvyucqugi7k6)" points="148,448.2813,296,448.2813,303,471.8906,306,471.8906,306,548.2813,148,548.2813,148,448.2813" style="stroke: #000000; stroke-width: 1.5;"/><line style="stroke: #000000; stroke-width: 1.5;" x1="148" x2="303" y1="471.8906" y2="471.8906"/><text fill="#000000" font-family="sans-serif" font-size="14" font-weight="bold" lengthAdjust="spacingAndGlyphs" textLength="142" x="152" y="464.8145">it.polimi.ingsw.game</text><!--MD5=[d06295f447a626044a03015f55b6822e]
class it.polimi.ingsw.controller.compact.CompactMap--><rect fill="#FEFECE" filter="url(#fgvyucqugi7k6)" height="158.6875" id="it.polimi.ingsw.controller.compact.CompactMap" style="stroke: #A80036; stroke-width: 1.5;" width="159" x="586.5" y="175.2813"/><ellipse cx="625.8" cy="191.2813" fill="#ADD1B2" rx="11" ry="11" style="stroke: #A80036; stroke-width: 1.0;"/><path d="M628.5656,187.1563 Q628.7219,186.9375 628.9094,186.8281 Q629.0969,186.7188 629.3156,186.7188 Q629.6906,186.7188 629.925,186.9844 Q630.1594,187.2344 630.1594,187.8438 L630.1594,189.2969 Q630.1594,189.9063 629.925,190.1719 Q629.6906,190.4375 629.3156,190.4375 Q628.9719,190.4375 628.7688,190.2344 Q628.5656,190.0469 628.4563,189.5313 Q628.4094,189.1719 628.2219,188.9844 Q627.8938,188.6094 627.2844,188.3906 Q626.675,188.1719 626.05,188.1719 Q625.2844,188.1719 624.6438,188.5 Q624.0188,188.8281 623.5188,189.5781 Q623.0344,190.3281 623.0344,191.3594 L623.0344,192.4531 Q623.0344,193.6875 623.925,194.5156 Q624.8156,195.3281 626.4094,195.3281 Q627.3469,195.3281 628.0031,195.0781 Q628.3938,194.9219 628.8156,194.4844 Q629.0813,194.2188 629.2219,194.1406 Q629.3781,194.0625 629.5813,194.0625 Q629.9094,194.0625 630.1594,194.3281 Q630.425,194.5781 630.425,194.9219 Q630.425,195.2656 630.0813,195.6719 Q629.5813,196.25 628.7844,196.5781 Q627.7063,197.0313 626.4094,197.0313 Q624.8938,197.0313 623.6906,196.4063 Q622.7063,195.9063 622.0188,194.8438 Q621.3313,193.7656 621.3313,192.4844 L621.3313,191.3281 Q621.3313,190 621.9406,188.8594 Q622.5656,187.7031 623.6594,187.0938 Q624.7531,186.4688 625.9875,186.4688 Q626.7219,186.4688 627.3625,186.6406 Q628.0188,186.7969 628.5656,187.1563 Z "/><text fill="#000000" font-family="sans-serif" font-size="12" lengthAdjust="spacingAndGlyphs" textLength="73" x="645.2" y="196.1914">CompactMap</text><line style="stroke: #A80036; stroke-width: 1.5;" x1="587.5" x2="744.5" y1="207.2813" y2="207.2813"/><polygon fill="none" points="597.5,214.2813,593.5,220.2813,601.5,220.2813" style="stroke: #1963A0; stroke-width: 1.0;"/><text fill="#000000" font-family="sans-serif" font-size="11" lengthAdjust="spacingAndGlyphs" textLength="52" x="606.5" y="222.7002">map : int[][]</text><polygon fill="none" points="597.5,228.1172,593.5,234.1172,601.5,234.1172" style="stroke: #1963A0; stroke-width: 1.0;"/><text fill="#000000" font-family="sans-serif" font-size="11" lengthAdjust="spacingAndGlyphs" textLength="133" x="606.5" y="236.5361">workers : CompactWorker[]</text><line style="stroke: #A80036; stroke-width: 1.5;" x1="587.5" x2="744.5" y1="242.9531" y2="242.9531"/><ellipse cx="597.5" cy="253.9531" fill="#84BE84" rx="3" ry="3" style="stroke: #038048; stroke-width: 1.0;"/><text fill="#000000" font-family="sans-serif" font-size="11" lengthAdjust="spacingAndGlyphs" textLength="70" x="606.5" y="258.3721">CompactMap()</text><ellipse cx="597.5" cy="267.7891" fill="#84BE84" rx="3" ry="3" style="stroke: #038048; stroke-width: 1.0;"/><text fill="#000000" font-family="sans-serif" font-size="11" lengthAdjust="spacingAndGlyphs" textLength="53" x="606.5" y="272.208">getHeight()</text><ellipse cx="597.5" cy="281.625" fill="#84BE84" rx="3" ry="3" style="stroke: #038048; stroke-width: 1.0;"/><text fill="#000000" font-family="sans-serif" font-size="11" lengthAdjust="spacingAndGlyphs" textLength="56" x="606.5" y="286.0439">getLength()</text><ellipse cx="597.5" cy="295.4609" fill="#84BE84" rx="3" ry="3" style="stroke: #038048; stroke-width: 1.0;"/><text fill="#000000" font-family="sans-serif" font-size="11" lengthAdjust="spacingAndGlyphs" textLength="49" x="606.5" y="299.8799">getLevel()</text><ellipse cx="597.5" cy="309.2969" fill="#84BE84" rx="3" ry="3" style="stroke: #038048; stroke-width: 1.0;"/><text fill="#000000" font-family="sans-serif" font-size="11" lengthAdjust="spacingAndGlyphs" textLength="64" x="606.5" y="313.7158">getWorkers()</text><ellipse cx="597.5" cy="323.1328" fill="#84BE84" rx="3" ry="3" style="stroke: #038048; stroke-width: 1.0;"/><text fill="#000000" font-family="sans-serif" font-size="11" lengthAdjust="spacingAndGlyphs" textLength="43" x="606.5" y="327.5518">isDome()</text><!--MD5=[5c82920937ca73802c6d0ef1af524f87]
class it.polimi.ingsw.controller.compact.CompactPlayer--><rect fill="#FEFECE" filter="url(#fgvyucqugi7k6)" height="158.6875" id="it.polimi.ingsw.controller.compact.CompactPlayer" style="stroke: #A80036; stroke-width: 1.5;" width="116" x="435" y="175.2813"/><ellipse cx="450" cy="191.2813" fill="#ADD1B2" rx="11" ry="11" style="stroke: #A80036; stroke-width: 1.0;"/><path d="M452.7656,187.1563 Q452.9219,186.9375 453.1094,186.8281 Q453.2969,186.7188 453.5156,186.7188 Q453.8906,186.7188 454.125,186.9844 Q454.3594,187.2344 454.3594,187.8438 L454.3594,189.2969 Q454.3594,189.9063 454.125,190.1719 Q453.8906,190.4375 453.5156,190.4375 Q453.1719,190.4375 452.9688,190.2344 Q452.7656,190.0469 452.6563,189.5313 Q452.6094,189.1719 452.4219,188.9844 Q452.0938,188.6094 451.4844,188.3906 Q450.875,188.1719 450.25,188.1719 Q449.4844,188.1719 448.8438,188.5 Q448.2188,188.8281 447.7188,189.5781 Q447.2344,190.3281 447.2344,191.3594 L447.2344,192.4531 Q447.2344,193.6875 448.125,194.5156 Q449.0156,195.3281 450.6094,195.3281 Q451.5469,195.3281 452.2031,195.0781 Q452.5938,194.9219 453.0156,194.4844 Q453.2813,194.2188 453.4219,194.1406 Q453.5781,194.0625 453.7813,194.0625 Q454.1094,194.0625 454.3594,194.3281 Q454.625,194.5781 454.625,194.9219 Q454.625,195.2656 454.2813,195.6719 Q453.7813,196.25 452.9844,196.5781 Q451.9063,197.0313 450.6094,197.0313 Q449.0938,197.0313 447.8906,196.4063 Q446.9063,195.9063 446.2188,194.8438 Q445.5313,193.7656 445.5313,192.4844 L445.5313,191.3281 Q445.5313,190 446.1406,188.8594 Q446.7656,187.7031 447.8594,187.0938 Q448.9531,186.4688 450.1875,186.4688 Q450.9219,186.4688 451.5625,186.6406 Q452.2188,186.7969 452.7656,187.1563 Z "/><text fill="#000000" font-family="sans-serif" font-size="12" lengthAdjust="spacingAndGlyphs" textLength="84" x="464" y="196.1914">CompactPlayer</text><line style="stroke: #A80036; stroke-width: 1.5;" x1="436" x2="550" y1="207.2813" y2="207.2813"/><polygon fill="none" points="446,214.2813,442,220.2813,450,220.2813" style="stroke: #1963A0; stroke-width: 1.0;"/><text fill="#000000" font-family="sans-serif" font-size="11" lengthAdjust="spacingAndGlyphs" textLength="47" x="455" y="222.7002">godID : int</text><polygon fill="none" points="446,228.1172,442,234.1172,450,234.1172" style="stroke: #1963A0; stroke-width: 1.0;"/><text fill="#000000" font-family="sans-serif" font-size="11" lengthAdjust="spacingAndGlyphs" textLength="28" x="455" y="236.5361">id : int</text><polygon fill="none" points="446,241.9531,442,247.9531,450,247.9531" style="stroke: #1963A0; stroke-width: 1.0;"/><text fill="#000000" font-family="sans-serif" font-size="11" lengthAdjust="spacingAndGlyphs" textLength="85" x="455" y="250.3721">username : String</text><line style="stroke: #A80036; stroke-width: 1.5;" x1="436" x2="550" y1="256.7891" y2="256.7891"/><ellipse cx="446" cy="267.7891" fill="#84BE84" rx="3" ry="3" style="stroke: #038048; stroke-width: 1.0;"/><text fill="#000000" font-family="sans-serif" font-size="11" lengthAdjust="spacingAndGlyphs" textLength="80" x="455" y="272.208">CompactPlayer()</text><ellipse cx="446" cy="281.625" fill="#84BE84" rx="3" ry="3" style="stroke: #038048; stroke-width: 1.0;"/><text fill="#000000" font-family="sans-serif" font-size="11" lengthAdjust="spacingAndGlyphs" textLength="80" x="455" y="286.0439">CompactPlayer()</text><ellipse cx="446" cy="295.4609" fill="#84BE84" rx="3" ry="3" style="stroke: #038048; stroke-width: 1.0;"/><text fill="#000000" font-family="sans-serif" font-size="11" lengthAdjust="spacingAndGlyphs" textLength="52" x="455" y="299.8799">getGodID()</text><ellipse cx="446" cy="309.2969" fill="#84BE84" rx="3" ry="3" style="stroke: #038048; stroke-width: 1.0;"/><text fill="#000000" font-family="sans-serif" font-size="11" lengthAdjust="spacingAndGlyphs" textLength="31" x="455" y="313.7158">getId()</text><ellipse cx="446" cy="323.1328" fill="#84BE84" rx="3" ry="3" style="stroke: #038048; stroke-width: 1.0;"/><text fill="#000000" font-family="sans-serif" font-size="11" lengthAdjust="spacingAndGlyphs" textLength="72" x="455" y="327.5518">getUsername()</text><!--MD5=[9ba6db07c990cf9a489d62b80e5c5179]
class it.polimi.ingsw.controller.compact.CompactSelectedAction--><rect fill="#FEFECE" filter="url(#fgvyucqugi7k6)" height="131.0156" id="it.polimi.ingsw.controller.compact.CompactSelectedAction" style="stroke: #A80036; stroke-width: 1.5;" width="163" x="80.5" y="189.2813"/><ellipse cx="95.5" cy="205.2813" fill="#ADD1B2" rx="11" ry="11" style="stroke: #A80036; stroke-width: 1.0;"/><path d="M98.2656,201.1563 Q98.4219,200.9375 98.6094,200.8281 Q98.7969,200.7188 99.0156,200.7188 Q99.3906,200.7188 99.625,200.9844 Q99.8594,201.2344 99.8594,201.8438 L99.8594,203.2969 Q99.8594,203.9063 99.625,204.1719 Q99.3906,204.4375 99.0156,204.4375 Q98.6719,204.4375 98.4688,204.2344 Q98.2656,204.0469 98.1563,203.5313 Q98.1094,203.1719 97.9219,202.9844 Q97.5938,202.6094 96.9844,202.3906 Q96.375,202.1719 95.75,202.1719 Q94.9844,202.1719 94.3438,202.5 Q93.7188,202.8281 93.2188,203.5781 Q92.7344,204.3281 92.7344,205.3594 L92.7344,206.4531 Q92.7344,207.6875 93.625,208.5156 Q94.5156,209.3281 96.1094,209.3281 Q97.0469,209.3281 97.7031,209.0781 Q98.0938,208.9219 98.5156,208.4844 Q98.7813,208.2188 98.9219,208.1406 Q99.0781,208.0625 99.2813,208.0625 Q99.6094,208.0625 99.8594,208.3281 Q100.125,208.5781 100.125,208.9219 Q100.125,209.2656 99.7813,209.6719 Q99.2813,210.25 98.4844,210.5781 Q97.4063,211.0313 96.1094,211.0313 Q94.5938,211.0313 93.3906,210.4063 Q92.4063,209.9063 91.7188,208.8438 Q91.0313,207.7656 91.0313,206.4844 L91.0313,205.3281 Q91.0313,204 91.6406,202.8594 Q92.2656,201.7031 93.3594,201.0938 Q94.4531,200.4688 95.6875,200.4688 Q96.4219,200.4688 97.0625,200.6406 Q97.7188,200.7969 98.2656,201.1563 Z "/><text fill="#000000" font-family="sans-serif" font-size="12" lengthAdjust="spacingAndGlyphs" textLength="131" x="109.5" y="210.1914">CompactSelectedAction</text><line style="stroke: #A80036; stroke-width: 1.5;" x1="81.5" x2="242.5" y1="221.2813" y2="221.2813"/><rect fill="none" height="6" style="stroke: #C82930; stroke-width: 1.0;" width="6" x="88.5" y="229.2813"/><text fill="#000000" font-family="sans-serif" font-size="11" lengthAdjust="spacingAndGlyphs" textLength="58" x="100.5" y="236.7002">actionID : int</text><rect fill="none" height="6" style="stroke: #C82930; stroke-width: 1.0;" width="6" x="88.5" y="243.1172"/><text fill="#000000" font-family="sans-serif" font-size="11" lengthAdjust="spacingAndGlyphs" textLength="64" x="100.5" y="250.5361">workerID : int</text><line style="stroke: #A80036; stroke-width: 1.5;" x1="81.5" x2="242.5" y1="256.9531" y2="256.9531"/><ellipse cx="91.5" cy="267.9531" fill="#84BE84" rx="3" ry="3" style="stroke: #038048; stroke-width: 1.0;"/><text fill="#000000" font-family="sans-serif" font-size="11" lengthAdjust="spacingAndGlyphs" textLength="123" x="100.5" y="272.3721">CompactSelectedAction()</text><ellipse cx="91.5" cy="281.7891" fill="#84BE84" rx="3" ry="3" style="stroke: #038048; stroke-width: 1.0;"/><text fill="#000000" font-family="sans-serif" font-size="11" lengthAdjust="spacingAndGlyphs" textLength="63" x="100.5" y="286.208">getActionID()</text><ellipse cx="91.5" cy="295.625" fill="#84BE84" rx="3" ry="3" style="stroke: #038048; stroke-width: 1.0;"/><text fill="#000000" font-family="sans-serif" font-size="11" lengthAdjust="spacingAndGlyphs" textLength="60" x="100.5" y="300.0439">getPosition()</text><ellipse cx="91.5" cy="309.4609" fill="#84BE84" rx="3" ry="3" style="stroke: #038048; stroke-width: 1.0;"/><text fill="#000000" font-family="sans-serif" font-size="11" lengthAdjust="spacingAndGlyphs" textLength="67" x="100.5" y="313.8799">getWorkerID()</text><!--MD5=[55e5b49e29304e937aec4ceebaa3a446]
class it.polimi.ingsw.controller.compact.CompactWorker--><rect fill="#FEFECE" filter="url(#fgvyucqugi7k6)" height="131.0156" id="it.polimi.ingsw.controller.compact.CompactWorker" style="stroke: #A80036; stroke-width: 1.5;" width="121" x="278.5" y="189.2813"/><ellipse cx="293.5" cy="205.2813" fill="#ADD1B2" rx="11" ry="11" style="stroke: #A80036; stroke-width: 1.0;"/><path d="M296.2656,201.1563 Q296.4219,200.9375 296.6094,200.8281 Q296.7969,200.7188 297.0156,200.7188 Q297.3906,200.7188 297.625,200.9844 Q297.8594,201.2344 297.8594,201.8438 L297.8594,203.2969 Q297.8594,203.9063 297.625,204.1719 Q297.3906,204.4375 297.0156,204.4375 Q296.6719,204.4375 296.4688,204.2344 Q296.2656,204.0469 296.1563,203.5313 Q296.1094,203.1719 295.9219,202.9844 Q295.5938,202.6094 294.9844,202.3906 Q294.375,202.1719 293.75,202.1719 Q292.9844,202.1719 292.3438,202.5 Q291.7188,202.8281 291.2188,203.5781 Q290.7344,204.3281 290.7344,205.3594 L290.7344,206.4531 Q290.7344,207.6875 291.625,208.5156 Q292.5156,209.3281 294.1094,209.3281 Q295.0469,209.3281 295.7031,209.0781 Q296.0938,208.9219 296.5156,208.4844 Q296.7813,208.2188 296.9219,208.1406 Q297.0781,208.0625 297.2813,208.0625 Q297.6094,208.0625 297.8594,208.3281 Q298.125,208.5781 298.125,208.9219 Q298.125,209.2656 297.7813,209.6719 Q297.2813,210.25 296.4844,210.5781 Q295.4063,211.0313 294.1094,211.0313 Q292.5938,211.0313 291.3906,210.4063 Q290.4063,209.9063 289.7188,208.8438 Q289.0313,207.7656 289.0313,206.4844 L289.0313,205.3281 Q289.0313,204 289.6406,202.8594 Q290.2656,201.7031 291.3594,201.0938 Q292.4531,200.4688 293.6875,200.4688 Q294.4219,200.4688 295.0625,200.6406 Q295.7188,200.7969 296.2656,201.1563 Z "/><text fill="#000000" font-family="sans-serif" font-size="12" lengthAdjust="spacingAndGlyphs" textLength="89" x="307.5" y="210.1914">CompactWorker</text><line style="stroke: #A80036; stroke-width: 1.5;" x1="279.5" x2="398.5" y1="221.2813" y2="221.2813"/><polygon fill="none" points="289.5,228.2813,285.5,234.2813,293.5,234.2813" style="stroke: #1963A0; stroke-width: 1.0;"/><text fill="#000000" font-family="sans-serif" font-size="11" lengthAdjust="spacingAndGlyphs" textLength="61" x="298.5" y="236.7002">ownerID : int</text><polygon fill="none" points="289.5,242.1172,285.5,248.1172,293.5,248.1172" style="stroke: #1963A0; stroke-width: 1.0;"/><text fill="#000000" font-family="sans-serif" font-size="11" lengthAdjust="spacingAndGlyphs" textLength="64" x="298.5" y="250.5361">workerID : int</text><line style="stroke: #A80036; stroke-width: 1.5;" x1="279.5" x2="398.5" y1="256.9531" y2="256.9531"/><ellipse cx="289.5" cy="267.9531" fill="#84BE84" rx="3" ry="3" style="stroke: #038048; stroke-width: 1.0;"/><text fill="#000000" font-family="sans-serif" font-size="11" lengthAdjust="spacingAndGlyphs" textLength="85" x="298.5" y="272.3721">CompactWorker()</text><ellipse cx="289.5" cy="281.7891" fill="#84BE84" rx="3" ry="3" style="stroke: #038048; stroke-width: 1.0;"/><text fill="#000000" font-family="sans-serif" font-size="11" lengthAdjust="spacingAndGlyphs" textLength="66" x="298.5" y="286.208">getOwnerID()</text><ellipse cx="289.5" cy="295.625" fill="#84BE84" rx="3" ry="3" style="stroke: #038048; stroke-width: 1.0;"/><text fill="#000000" font-family="sans-serif" font-size="11" lengthAdjust="spacingAndGlyphs" textLength="60" x="298.5" y="300.0439">getPosition()</text><ellipse cx="289.5" cy="309.4609" fill="#84BE84" rx="3" ry="3" style="stroke: #038048; stroke-width: 1.0;"/><text fill="#000000" font-family="sans-serif" font-size="11" lengthAdjust="spacingAndGlyphs" textLength="67" x="298.5" y="313.8799">getWorkerID()</text><!--MD5=[80dade3f6fa6d590bd9205c5a2026c6c]
class it.polimi.ingsw.game.Vector2--><rect fill="#FEFECE" filter="url(#fgvyucqugi7k6)" height="48" id="it.polimi.ingsw.game.Vector2" style="stroke: #A80036; stroke-width: 1.5;" width="73" x="190.5" y="484.2813"/><ellipse cx="205.5" cy="500.2813" fill="#ADD1B2" rx="11" ry="11" style="stroke: #A80036; stroke-width: 1.0;"/><path d="M208.2656,496.1563 Q208.4219,495.9375 208.6094,495.8281 Q208.7969,495.7188 209.0156,495.7188 Q209.3906,495.7188 209.625,495.9844 Q209.8594,496.2344 209.8594,496.8438 L209.8594,498.2969 Q209.8594,498.9063 209.625,499.1719 Q209.3906,499.4375 209.0156,499.4375 Q208.6719,499.4375 208.4688,499.2344 Q208.2656,499.0469 208.1563,498.5313 Q208.1094,498.1719 207.9219,497.9844 Q207.5938,497.6094 206.9844,497.3906 Q206.375,497.1719 205.75,497.1719 Q204.9844,497.1719 204.3438,497.5 Q203.7188,497.8281 203.2188,498.5781 Q202.7344,499.3281 202.7344,500.3594 L202.7344,501.4531 Q202.7344,502.6875 203.625,503.5156 Q204.5156,504.3281 206.1094,504.3281 Q207.0469,504.3281 207.7031,504.0781 Q208.0938,503.9219 208.5156,503.4844 Q208.7813,503.2188 208.9219,503.1406 Q209.0781,503.0625 209.2813,503.0625 Q209.6094,503.0625 209.8594,503.3281 Q210.125,503.5781 210.125,503.9219 Q210.125,504.2656 209.7813,504.6719 Q209.2813,505.25 208.4844,505.5781 Q207.4063,506.0313 206.1094,506.0313 Q204.5938,506.0313 203.3906,505.4063 Q202.4063,504.9063 201.7188,503.8438 Q201.0313,502.7656 201.0313,501.4844 L201.0313,500.3281 Q201.0313,499 201.6406,497.8594 Q202.2656,496.7031 203.3594,496.0938 Q204.4531,495.4688 205.6875,495.4688 Q206.4219,495.4688 207.0625,495.6406 Q207.7188,495.7969 208.2656,496.1563 Z "/><text fill="#000000" font-family="sans-serif" font-size="12" lengthAdjust="spacingAndGlyphs" textLength="41" x="219.5" y="505.1914">Vector2</text><line style="stroke: #A80036; stroke-width: 1.5;" x1="191.5" x2="262.5" y1="516.2813" y2="516.2813"/><line style="stroke: #A80036; stroke-width: 1.5;" x1="191.5" x2="262.5" y1="524.2813" y2="524.2813"/><!--MD5=[9fcea94f854c97d9ea6105deba656d39]
reverse link it.polimi.ingsw.controller.compact.CompactSelectedAction to it.polimi.ingsw.game.Vector2--><path d="M182.069,333.4323 C195.474,385.2993 212.201,450.0213 220.98,483.9873 " fill="none" id="it.polimi.ingsw.controller.compact.CompactSelectedAction&lt;-it.polimi.ingsw.game.Vector2" style="stroke: #A80036; stroke-width: 1.0;"/><polygon fill="#FFFFFF" points="178.739,320.5483,176.3677,327.3583,181.7418,332.1665,184.1131,325.3564,178.739,320.5483" style="stroke: #A80036; stroke-width: 1.0;"/><text fill="#000000" font-family="sans-serif" font-size="13" lengthAdjust="spacingAndGlyphs" textLength="45" x="206" y="428.7764">position</text><!--MD5=[20c064b23f9031a0605196b72b0e536f]
reverse link it.polimi.ingsw.controller.compact.CompactWorker to it.polimi.ingsw.game.Vector2--><path d="M304.86,332.4443 C281.689,384.4752 252.596,449.8053 237.373,483.9873 " fill="none" id="it.polimi.ingsw.controller.compact.CompactWorker&lt;-it.polimi.ingsw.game.Vector2" style="stroke: #A80036; stroke-width: 1.0;"/><polygon fill="#FFFFFF" points="310.157,320.5483,304.0621,324.4021,305.2753,331.5104,311.3702,327.6566,310.157,320.5483" style="stroke: #A80036; stroke-width: 1.0;"/><text fill="#000000" font-family="sans-serif" font-size="13" lengthAdjust="spacingAndGlyphs" textLength="45" x="267" y="428.7764">position</text><text fill="#888888" font-family="sans-serif" font-size="10" lengthAdjust="spacingAndGlyphs" textLength="0" x="814" y="564.6621"/><text fill="#888888" font-family="sans-serif" font-size="10" lengthAdjust="spacingAndGlyphs" textLength="0" x="814" y="577.2402"/><text fill="#888888" font-family="sans-serif" font-size="10" lengthAdjust="spacingAndGlyphs" textLength="392" x="422" y="589.8184">PlantUML diagram generated by SketchIt! (https://bitbucket.org/pmesmeur/sketch.it)</text><text fill="#888888" font-family="sans-serif" font-size="10" lengthAdjust="spacingAndGlyphs" textLength="394" x="420" y="602.3965">For more information about this tool, please contact philippe.mesmeur@gmail.com</text><!--MD5=[42509c836a90a57aebce0d51565fe27f]
@startuml

title __COMPACT's Class Diagram__\n

  namespace it.polimi.ingsw {
    namespace controller {
      namespace compact {
        class it.polimi.ingsw.controller.compact.CompactMap {
            ~ map : int[][]
            ~ workers : CompactWorker[]
            + CompactMap()
            + getHeight()
            + getLength()
            + getLevel()
            + getWorkers()
            + isDome()
        }
      }
    }
  }
  

  namespace it.polimi.ingsw {
    namespace controller {
      namespace compact {
        class it.polimi.ingsw.controller.compact.CompactPlayer {
            ~ godID : int
            ~ id : int
            ~ username : String
            + CompactPlayer()
            + CompactPlayer()
            + getGodID()
            + getId()
            + getUsername()
        }
      }
    }
  }
  

  namespace it.polimi.ingsw {
    namespace controller {
      namespace compact {
        class it.polimi.ingsw.controller.compact.CompactSelectedAction {
            - actionID : int
            - workerID : int
            + CompactSelectedAction()
            + getActionID()
            + getPosition()
            + getWorkerID()
        }
      }
    }
  }
  

  namespace it.polimi.ingsw {
    namespace controller {
      namespace compact {
        class it.polimi.ingsw.controller.compact.CompactWorker {
            ~ ownerID : int
            ~ workerID : int
            + CompactWorker()
            + getOwnerID()
            + getPosition()
            + getWorkerID()
        }
      }
    }
  }
  

  it.polimi.ingsw.controller.compact.CompactSelectedAction o- - it.polimi.ingsw.game.Vector2 : position
  it.polimi.ingsw.controller.compact.CompactWorker o- - it.polimi.ingsw.game.Vector2 : position


right footer


PlantUML diagram generated by SketchIt! (https://bitbucket.org/pmesmeur/sketch.it)
For more information about this tool, please contact philippe.mesmeur@gmail.com
endfooter

@enduml

PlantUML version 1.2020.14(Sat Jun 20 16:14:34 CEST 2020)
(GPL source distribution)
Java Runtime: Java(TM) SE Runtime Environment
JVM: Java HotSpot(TM) 64-Bit Server VM
Default Encoding: Cp1252
Language: it
Country: IT
--></g></svg>