<?xml version="1.0" encoding="UTF-8" standalone="no"?><svg xmlns="http://www.w3.org/2000/svg" xmlns:xlink="http://www.w3.org/1999/xlink" contentScriptType="application/ecmascript" contentStyleType="text/css" height="260px" preserveAspectRatio="none" style="width:406px;height:260px;" version="1.1" viewBox="0 0 406 260" width="406px" zoomAndPan="magnify"><defs><filter height="300%" id="fkvjqxteerthd" width="300%" x="-1" y="-1"><feGaussianBlur result="blurOut" stdDeviation="2.0"/><feColorMatrix in="blurOut" result="blurOut2" type="matrix" values="0 0 0 0 0 0 0 0 0 0 0 0 0 0 0 0 0 0 .4 0"/><feOffset dx="4.0" dy="4.0" in="blurOut2" result="blurOut3"/><feBlend in="SourceGraphic" in2="blurOut3" mode="normal"/></filter></defs><g><text fill="#000000" font-family="sans-serif" font-size="18" lengthAdjust="spacingAndGlyphs" text-decoration="underline" textLength="194" x="100" y="18.6855">INGSW's Class Diagram</text><text fill="#000000" font-family="sans-serif" font-size="18" lengthAdjust="spacingAndGlyphs" textLength="0" x="199.5" y="41.3262"/><!--MD5=[432dd831305d7709bed0fe1447e3cfc7]
cluster it.polimi.ingsw--><polygon fill="#FFFFFF" filter="url(#fkvjqxteerthd)" points="119,51.2813,225,51.2813,232,74.8906,287,74.8906,287,193.2813,119,193.2813,119,51.2813" style="stroke: #000000; stroke-width: 1.5;"/><line style="stroke: #000000; stroke-width: 1.5;" x1="119" x2="232" y1="74.8906" y2="74.8906"/><text fill="#000000" font-family="sans-serif" font-size="14" font-weight="bold" lengthAdjust="spacingAndGlyphs" textLength="100" x="123" y="67.8145">it.polimi.ingsw</text><!--MD5=[98df59ed13fb91796fd9d5d66cea5e1e]
class it.polimi.ingsw.CommonLauncher--><rect fill="#FEFECE" filter="url(#fkvjqxteerthd)" height="89.5078" id="it.polimi.ingsw.CommonLauncher" style="stroke: #A80036; stroke-width: 1.5;" width="136" x="135" y="87.2813"/><ellipse cx="150" cy="103.2813" fill="#ADD1B2" rx="11" ry="11" style="stroke: #A80036; stroke-width: 1.0;"/><path d="M152.7656,99.1563 Q152.9219,98.9375 153.1094,98.8281 Q153.2969,98.7188 153.5156,98.7188 Q153.8906,98.7188 154.125,98.9844 Q154.3594,99.2344 154.3594,99.8438 L154.3594,101.2969 Q154.3594,101.9063 154.125,102.1719 Q153.8906,102.4375 153.5156,102.4375 Q153.1719,102.4375 152.9688,102.2344 Q152.7656,102.0469 152.6563,101.5313 Q152.6094,101.1719 152.4219,100.9844 Q152.0938,100.6094 151.4844,100.3906 Q150.875,100.1719 150.25,100.1719 Q149.4844,100.1719 148.8438,100.5 Q148.2188,100.8281 147.7188,101.5781 Q147.2344,102.3281 147.2344,103.3594 L147.2344,104.4531 Q147.2344,105.6875 148.125,106.5156 Q149.0156,107.3281 150.6094,107.3281 Q151.5469,107.3281 152.2031,107.0781 Q152.5938,106.9219 153.0156,106.4844 Q153.2813,106.2188 153.4219,106.1406 Q153.5781,106.0625 153.7813,106.0625 Q154.1094,106.0625 154.3594,106.3281 Q154.625,106.5781 154.625,106.9219 Q154.625,107.2656 154.2813,107.6719 Q153.7813,108.25 152.9844,108.5781 Q151.9063,109.0313 150.6094,109.0313 Q149.0938,109.0313 147.8906,108.4063 Q146.9063,107.9063 146.2188,106.8438 Q145.5313,105.7656 145.5313,104.4844 L145.5313,103.3281 Q145.5313,102 146.1406,100.8594 Q146.7656,99.7031 147.8594,99.0938 Q148.9531,98.4688 150.1875,98.4688 Q150.9219,98.4688 151.5625,98.6406 Q152.2188,98.7969 152.7656,99.1563 Z "/><text fill="#000000" font-family="sans-serif" font-size="12" lengthAdjust="spacingAndGlyphs" textLength="104" x="164" y="108.1914">CommonLauncher</text><line style="stroke: #A80036; stroke-width: 1.5;" x1="136" x2="270" y1="119.2813" y2="119.2813"/><line style="stroke: #A80036; stroke-width: 1.5;" x1="136" x2="270" y1="127.2813" y2="127.2813"/><ellipse cx="146" cy="138.2813" fill="#84BE84" rx="3" ry="3" style="stroke: #038048; stroke-width: 1.0;"/><text fill="#000000" font-family="sans-serif" font-size="11" lengthAdjust="spacingAndGlyphs" text-decoration="underline" textLength="66" x="155" y="142.7002">launchClient()</text><ellipse cx="146" cy="152.1172" fill="#84BE84" rx="3" ry="3" style="stroke: #038048; stroke-width: 1.0;"/><text fill="#000000" font-family="sans-serif" font-size="11" lengthAdjust="spacingAndGlyphs" text-decoration="underline" textLength="73" x="155" y="156.5361">launchServer()</text><ellipse cx="146" cy="165.9531" fill="#84BE84" rx="3" ry="3" style="stroke: #038048; stroke-width: 1.0;"/><text fill="#000000" font-family="sans-serif" font-size="11" lengthAdjust="spacingAndGlyphs" text-decoration="underline" textLength="30" x="155" y="170.3721">main()</text><text fill="#888888" font-family="sans-serif" font-size="10" lengthAdjust="spacingAndGlyphs" textLength="0" x="394" y="209.6621"/><text fill="#888888" font-family="sans-serif" font-size="10" lengthAdjust="spacingAndGlyphs" textLength="0" x="394" y="222.2402"/><text fill="#888888" font-family="sans-serif" font-size="10" lengthAdjust="spacingAndGlyphs" textLength="392" x="2" y="234.8184">PlantUML diagram generated by SketchIt! (https://bitbucket.org/pmesmeur/sketch.it)</text><text fill="#888888" font-family="sans-serif" font-size="10" lengthAdjust="spacingAndGlyphs" textLength="394" x="0" y="247.3965">For more information about this tool, please contact philippe.mesmeur@gmail.com</text><!--MD5=[b8a023821c2a3001bebda92cd775f984]
@startuml

title __INGSW's Class Diagram__\n

  namespace it.polimi.ingsw {
    class it.polimi.ingsw.CommonLauncher {
        {static} + launchClient()
        {static} + launchServer()
        {static} + main()
    }
  }
  



right footer


PlantUML diagram generated by SketchIt! (https://bitbucket.org/pmesmeur/sketch.it)
For more information about this tool, please contact philippe.mesmeur@gmail.com
endfooter

@enduml

PlantUML version 1.2020.14(Sat Jun 20 16:14:34 CEST 2020)
(GPL source distribution)
Java Runtime: Java(TM) SE Runtime Environment
JVM: Java HotSpot(TM) 64-Bit Server VM
Default Encoding: Cp1252
Language: it
Country: IT
--></g></svg>