<?xml version="1.0" encoding="UTF-8" standalone="no"?><svg xmlns="http://www.w3.org/2000/svg" xmlns:xlink="http://www.w3.org/1999/xlink" contentScriptType="application/ecmascript" contentStyleType="text/css" height="1187px" preserveAspectRatio="none" style="width:542px;height:1187px;" version="1.1" viewBox="0 0 542 1187" width="542px" zoomAndPan="magnify"><defs><filter height="300%" id="f1jovlq29jvtzm" width="300%" x="-1" y="-1"><feGaussianBlur result="blurOut" stdDeviation="2.0"/><feColorMatrix in="blurOut" result="blurOut2" type="matrix" values="0 0 0 0 0 0 0 0 0 0 0 0 0 0 0 0 0 0 .4 0"/><feOffset dx="4.0" dy="4.0" in="blurOut2" result="blurOut3"/><feBlend in="SourceGraphic" in2="blurOut3" mode="normal"/></filter></defs><g><text fill="#000000" font-family="sans-serif" font-size="18" lengthAdjust="spacingAndGlyphs" text-decoration="underline" textLength="267" x="128.5" y="18.6855">MATCHMAKING's Class Diagram</text><text fill="#000000" font-family="sans-serif" font-size="18" lengthAdjust="spacingAndGlyphs" textLength="0" x="264.5" y="41.3262"/><!--MD5=[432dd831305d7709bed0fe1447e3cfc7]
cluster it.polimi.ingsw--><polygon fill="#FFFFFF" filter="url(#f1jovlq29jvtzm)" points="16,51.2813,122,51.2813,129,74.8906,520,74.8906,520,970.2813,16,970.2813,16,51.2813" style="stroke: #000000; stroke-width: 1.5;"/><line style="stroke: #000000; stroke-width: 1.5;" x1="16" x2="129" y1="74.8906" y2="74.8906"/><text fill="#000000" font-family="sans-serif" font-size="14" font-weight="bold" lengthAdjust="spacingAndGlyphs" textLength="100" x="20" y="67.8145">it.polimi.ingsw</text><!--MD5=[1051524154ce11174f76d97393e7fa59]
cluster it.polimi.ingsw.network--><polygon fill="#FFFFFF" filter="url(#f1jovlq29jvtzm)" points="40,95.2813,103,95.2813,110,118.8906,496,118.8906,496,946.2813,40,946.2813,40,95.2813" style="stroke: #000000; stroke-width: 1.5;"/><line style="stroke: #000000; stroke-width: 1.5;" x1="40" x2="110" y1="118.8906" y2="118.8906"/><text fill="#000000" font-family="sans-serif" font-size="14" font-weight="bold" lengthAdjust="spacingAndGlyphs" textLength="57" x="44" y="111.8145">network</text><!--MD5=[8a6101265ad6cfbbcae69d9835db7eda]
cluster it.polimi.ingsw.network.matchmaking--><polygon fill="#FFFFFF" filter="url(#f1jovlq29jvtzm)" points="64,226.2813,162,226.2813,169,249.8906,322,249.8906,322,922.2813,64,922.2813,64,226.2813" style="stroke: #000000; stroke-width: 1.5;"/><line style="stroke: #000000; stroke-width: 1.5;" x1="64" x2="169" y1="249.8906" y2="249.8906"/><text fill="#000000" font-family="sans-serif" font-size="14" font-weight="bold" lengthAdjust="spacingAndGlyphs" textLength="92" x="68" y="242.8145">matchmaking</text><!--MD5=[f41b0b3ca4be87aefc732ab580a26293]
cluster it.polimi.ingsw.network.server--><polygon fill="#FFFFFF" filter="url(#f1jovlq29jvtzm)" points="80,1020.2813,298,1020.2813,305,1043.8906,308,1043.8906,308,1120.2813,80,1120.2813,80,1020.2813" style="stroke: #000000; stroke-width: 1.5;"/><line style="stroke: #000000; stroke-width: 1.5;" x1="80" x2="305" y1="1043.8906" y2="1043.8906"/><text fill="#000000" font-family="sans-serif" font-size="14" font-weight="bold" lengthAdjust="spacingAndGlyphs" textLength="212" x="84" y="1036.8145">it.polimi.ingsw.network.server</text><!--MD5=[11a498b57674a50a50405ff21f95364b]
class it.polimi.ingsw.network.INetworkForwarder--><rect fill="#FEFECE" filter="url(#f1jovlq29jvtzm)" height="48" id="it.polimi.ingsw.network.INetworkForwarder" style="stroke: #A80036; stroke-width: 1.5;" width="136" x="97" y="131.2813"/><ellipse cx="112" cy="147.2813" fill="#ADD1B2" rx="11" ry="11" style="stroke: #A80036; stroke-width: 1.0;"/><path d="M114.7656,143.1563 Q114.9219,142.9375 115.1094,142.8281 Q115.2969,142.7188 115.5156,142.7188 Q115.8906,142.7188 116.125,142.9844 Q116.3594,143.2344 116.3594,143.8438 L116.3594,145.2969 Q116.3594,145.9063 116.125,146.1719 Q115.8906,146.4375 115.5156,146.4375 Q115.1719,146.4375 114.9688,146.2344 Q114.7656,146.0469 114.6563,145.5313 Q114.6094,145.1719 114.4219,144.9844 Q114.0938,144.6094 113.4844,144.3906 Q112.875,144.1719 112.25,144.1719 Q111.4844,144.1719 110.8438,144.5 Q110.2188,144.8281 109.7188,145.5781 Q109.2344,146.3281 109.2344,147.3594 L109.2344,148.4531 Q109.2344,149.6875 110.125,150.5156 Q111.0156,151.3281 112.6094,151.3281 Q113.5469,151.3281 114.2031,151.0781 Q114.5938,150.9219 115.0156,150.4844 Q115.2813,150.2188 115.4219,150.1406 Q115.5781,150.0625 115.7813,150.0625 Q116.1094,150.0625 116.3594,150.3281 Q116.625,150.5781 116.625,150.9219 Q116.625,151.2656 116.2813,151.6719 Q115.7813,152.25 114.9844,152.5781 Q113.9063,153.0313 112.6094,153.0313 Q111.0938,153.0313 109.8906,152.4063 Q108.9063,151.9063 108.2188,150.8438 Q107.5313,149.7656 107.5313,148.4844 L107.5313,147.3281 Q107.5313,146 108.1406,144.8594 Q108.7656,143.7031 109.8594,143.0938 Q110.9531,142.4688 112.1875,142.4688 Q112.9219,142.4688 113.5625,142.6406 Q114.2188,142.7969 114.7656,143.1563 Z "/><text fill="#000000" font-family="sans-serif" font-size="12" lengthAdjust="spacingAndGlyphs" textLength="104" x="126" y="152.1914">INetworkForwarder</text><line style="stroke: #A80036; stroke-width: 1.5;" x1="98" x2="232" y1="163.2813" y2="163.2813"/><line style="stroke: #A80036; stroke-width: 1.5;" x1="98" x2="232" y1="171.2813" y2="171.2813"/><!--MD5=[1e8c947f8210394413475712e15072ae]
class it.polimi.ingsw.network.ICommandReceiver--><rect fill="#FEFECE" filter="url(#f1jovlq29jvtzm)" height="48" id="it.polimi.ingsw.network.ICommandReceiver" style="stroke: #A80036; stroke-width: 1.5;" width="142" x="338" y="372.7813"/><ellipse cx="353" cy="388.7813" fill="#ADD1B2" rx="11" ry="11" style="stroke: #A80036; stroke-width: 1.0;"/><path d="M355.7656,384.6563 Q355.9219,384.4375 356.1094,384.3281 Q356.2969,384.2188 356.5156,384.2188 Q356.8906,384.2188 357.125,384.4844 Q357.3594,384.7344 357.3594,385.3438 L357.3594,386.7969 Q357.3594,387.4063 357.125,387.6719 Q356.8906,387.9375 356.5156,387.9375 Q356.1719,387.9375 355.9688,387.7344 Q355.7656,387.5469 355.6563,387.0313 Q355.6094,386.6719 355.4219,386.4844 Q355.0938,386.1094 354.4844,385.8906 Q353.875,385.6719 353.25,385.6719 Q352.4844,385.6719 351.8438,386 Q351.2188,386.3281 350.7188,387.0781 Q350.2344,387.8281 350.2344,388.8594 L350.2344,389.9531 Q350.2344,391.1875 351.125,392.0156 Q352.0156,392.8281 353.6094,392.8281 Q354.5469,392.8281 355.2031,392.5781 Q355.5938,392.4219 356.0156,391.9844 Q356.2813,391.7188 356.4219,391.6406 Q356.5781,391.5625 356.7813,391.5625 Q357.1094,391.5625 357.3594,391.8281 Q357.625,392.0781 357.625,392.4219 Q357.625,392.7656 357.2813,393.1719 Q356.7813,393.75 355.9844,394.0781 Q354.9063,394.5313 353.6094,394.5313 Q352.0938,394.5313 350.8906,393.9063 Q349.9063,393.4063 349.2188,392.3438 Q348.5313,391.2656 348.5313,389.9844 L348.5313,388.8281 Q348.5313,387.5 349.1406,386.3594 Q349.7656,385.2031 350.8594,384.5938 Q351.9531,383.9688 353.1875,383.9688 Q353.9219,383.9688 354.5625,384.1406 Q355.2188,384.2969 355.7656,384.6563 Z "/><text fill="#000000" font-family="sans-serif" font-size="12" lengthAdjust="spacingAndGlyphs" textLength="110" x="367" y="393.6914">ICommandReceiver</text><line style="stroke: #A80036; stroke-width: 1.5;" x1="339" x2="479" y1="404.7813" y2="404.7813"/><line style="stroke: #A80036; stroke-width: 1.5;" x1="339" x2="479" y1="412.7813" y2="412.7813"/><!--MD5=[d099d980ec6cd1fdc104d8d1d1601f64]
class it.polimi.ingsw.network.matchmaking.VirtualMatch--><rect fill="#FEFECE" filter="url(#f1jovlq29jvtzm)" height="269.375" id="it.polimi.ingsw.network.matchmaking.VirtualMatch" style="stroke: #A80036; stroke-width: 1.5;" width="167" x="81.5" y="262.2813"/><ellipse cx="127.75" cy="278.2813" fill="#ADD1B2" rx="11" ry="11" style="stroke: #A80036; stroke-width: 1.0;"/><path d="M130.5156,274.1563 Q130.6719,273.9375 130.8594,273.8281 Q131.0469,273.7188 131.2656,273.7188 Q131.6406,273.7188 131.875,273.9844 Q132.1094,274.2344 132.1094,274.8438 L132.1094,276.2969 Q132.1094,276.9063 131.875,277.1719 Q131.6406,277.4375 131.2656,277.4375 Q130.9219,277.4375 130.7188,277.2344 Q130.5156,277.0469 130.4063,276.5313 Q130.3594,276.1719 130.1719,275.9844 Q129.8438,275.6094 129.2344,275.3906 Q128.625,275.1719 128,275.1719 Q127.2344,275.1719 126.5938,275.5 Q125.9688,275.8281 125.4688,276.5781 Q124.9844,277.3281 124.9844,278.3594 L124.9844,279.4531 Q124.9844,280.6875 125.875,281.5156 Q126.7656,282.3281 128.3594,282.3281 Q129.2969,282.3281 129.9531,282.0781 Q130.3438,281.9219 130.7656,281.4844 Q131.0313,281.2188 131.1719,281.1406 Q131.3281,281.0625 131.5313,281.0625 Q131.8594,281.0625 132.1094,281.3281 Q132.375,281.5781 132.375,281.9219 Q132.375,282.2656 132.0313,282.6719 Q131.5313,283.25 130.7344,283.5781 Q129.6563,284.0313 128.3594,284.0313 Q126.8438,284.0313 125.6406,283.4063 Q124.6563,282.9063 123.9688,281.8438 Q123.2813,280.7656 123.2813,279.4844 L123.2813,278.3281 Q123.2813,277 123.8906,275.8594 Q124.5156,274.7031 125.6094,274.0938 Q126.7031,273.4688 127.9375,273.4688 Q128.6719,273.4688 129.3125,273.6406 Q129.9688,273.7969 130.5156,274.1563 Z "/><text fill="#000000" font-family="sans-serif" font-size="12" lengthAdjust="spacingAndGlyphs" textLength="66" x="148.25" y="283.1914">VirtualMatch</text><line style="stroke: #A80036; stroke-width: 1.5;" x1="82.5" x2="247.5" y1="294.2813" y2="294.2813"/><rect fill="none" height="6" style="stroke: #C82930; stroke-width: 1.0;" width="6" x="89.5" y="302.2813"/><text fill="#000000" font-family="sans-serif" font-size="11" lengthAdjust="spacingAndGlyphs" textLength="119" x="101.5" y="309.7002">isEnded : AtomicBoolean</text><rect fill="none" height="6" style="stroke: #C82930; stroke-width: 1.0;" width="6" x="89.5" y="316.1172"/><text fill="#000000" font-family="sans-serif" font-size="11" lengthAdjust="spacingAndGlyphs" textLength="124" x="101.5" y="323.5361">isStarted : AtomicBoolean</text><rect fill="none" height="6" style="stroke: #C82930; stroke-width: 1.0;" width="6" x="89.5" y="329.9531"/><text fill="#000000" font-family="sans-serif" font-size="11" lengthAdjust="spacingAndGlyphs" textLength="107" x="101.5" y="337.3721">players : List&lt;Integer&gt;</text><line style="stroke: #A80036; stroke-width: 1.5;" x1="82.5" x2="247.5" y1="343.7891" y2="343.7891"/><ellipse cx="92.5" cy="354.7891" fill="#84BE84" rx="3" ry="3" style="stroke: #038048; stroke-width: 1.0;"/><text fill="#000000" font-family="sans-serif" font-size="11" lengthAdjust="spacingAndGlyphs" textLength="68" x="101.5" y="359.208">VirtualMatch()</text><ellipse cx="92.5" cy="368.625" fill="#84BE84" rx="3" ry="3" style="stroke: #038048; stroke-width: 1.0;"/><text fill="#000000" font-family="sans-serif" font-size="11" lengthAdjust="spacingAndGlyphs" textLength="56" x="101.5" y="373.0439">addPlayer()</text><ellipse cx="92.5" cy="382.4609" fill="#84BE84" rx="3" ry="3" style="stroke: #038048; stroke-width: 1.0;"/><text fill="#000000" font-family="sans-serif" font-size="11" lengthAdjust="spacingAndGlyphs" textLength="63" x="101.5" y="386.8799">execAction()</text><ellipse cx="92.5" cy="396.2969" fill="#84BE84" rx="3" ry="3" style="stroke: #038048; stroke-width: 1.0;"/><text fill="#000000" font-family="sans-serif" font-size="11" lengthAdjust="spacingAndGlyphs" textLength="83" x="101.5" y="400.7158">getBroadCastID()</text><ellipse cx="92.5" cy="410.1328" fill="#84BE84" rx="3" ry="3" style="stroke: #038048; stroke-width: 1.0;"/><text fill="#000000" font-family="sans-serif" font-size="11" lengthAdjust="spacingAndGlyphs" textLength="76" x="101.5" y="414.5518">getDefaultPort()</text><ellipse cx="92.5" cy="423.9688" fill="#84BE84" rx="3" ry="3" style="stroke: #038048; stroke-width: 1.0;"/><text fill="#000000" font-family="sans-serif" font-size="11" lengthAdjust="spacingAndGlyphs" textLength="68" x="101.5" y="428.3877">getPlayerIDs()</text><ellipse cx="92.5" cy="437.8047" fill="#84BE84" rx="3" ry="3" style="stroke: #038048; stroke-width: 1.0;"/><text fill="#000000" font-family="sans-serif" font-size="11" lengthAdjust="spacingAndGlyphs" textLength="65" x="101.5" y="442.2236">getServerID()</text><ellipse cx="92.5" cy="451.6406" fill="#84BE84" rx="3" ry="3" style="stroke: #038048; stroke-width: 1.0;"/><text fill="#000000" font-family="sans-serif" font-size="11" lengthAdjust="spacingAndGlyphs" textLength="32" x="101.5" y="456.0596">isFull()</text><ellipse cx="92.5" cy="465.4766" fill="#84BE84" rx="3" ry="3" style="stroke: #038048; stroke-width: 1.0;"/><text fill="#000000" font-family="sans-serif" font-size="11" lengthAdjust="spacingAndGlyphs" textLength="51" x="101.5" y="469.8955">isWaiting()</text><ellipse cx="92.5" cy="479.3125" fill="#84BE84" rx="3" ry="3" style="stroke: #038048; stroke-width: 1.0;"/><text fill="#000000" font-family="sans-serif" font-size="11" lengthAdjust="spacingAndGlyphs" textLength="66" x="101.5" y="483.7314">playerCount()</text><ellipse cx="92.5" cy="493.1484" fill="#84BE84" rx="3" ry="3" style="stroke: #038048; stroke-width: 1.0;"/><text fill="#000000" font-family="sans-serif" font-size="11" lengthAdjust="spacingAndGlyphs" textLength="74" x="101.5" y="497.5674">removePlayer()</text><ellipse cx="92.5" cy="506.9844" fill="#84BE84" rx="3" ry="3" style="stroke: #038048; stroke-width: 1.0;"/><text fill="#000000" font-family="sans-serif" font-size="11" lengthAdjust="spacingAndGlyphs" textLength="141" x="101.5" y="511.4033">removePlayerNoDisconnect()</text><ellipse cx="92.5" cy="520.8203" fill="#84BE84" rx="3" ry="3" style="stroke: #038048; stroke-width: 1.0;"/><text fill="#000000" font-family="sans-serif" font-size="11" lengthAdjust="spacingAndGlyphs" textLength="32" x="101.5" y="525.2393">send()</text><!--MD5=[39b027ca3d5015ce5112e5103938858e]
class it.polimi.ingsw.network.matchmaking.VirtualMatchmaker--><rect fill="#FEFECE" filter="url(#f1jovlq29jvtzm)" height="297.0469" id="it.polimi.ingsw.network.matchmaking.VirtualMatchmaker" style="stroke: #A80036; stroke-width: 1.5;" width="226" x="80" y="609.2813"/><ellipse cx="138.25" cy="625.2813" fill="#ADD1B2" rx="11" ry="11" style="stroke: #A80036; stroke-width: 1.0;"/><path d="M141.0156,621.1563 Q141.1719,620.9375 141.3594,620.8281 Q141.5469,620.7188 141.7656,620.7188 Q142.1406,620.7188 142.375,620.9844 Q142.6094,621.2344 142.6094,621.8438 L142.6094,623.2969 Q142.6094,623.9063 142.375,624.1719 Q142.1406,624.4375 141.7656,624.4375 Q141.4219,624.4375 141.2188,624.2344 Q141.0156,624.0469 140.9063,623.5313 Q140.8594,623.1719 140.6719,622.9844 Q140.3438,622.6094 139.7344,622.3906 Q139.125,622.1719 138.5,622.1719 Q137.7344,622.1719 137.0938,622.5 Q136.4688,622.8281 135.9688,623.5781 Q135.4844,624.3281 135.4844,625.3594 L135.4844,626.4531 Q135.4844,627.6875 136.375,628.5156 Q137.2656,629.3281 138.8594,629.3281 Q139.7969,629.3281 140.4531,629.0781 Q140.8438,628.9219 141.2656,628.4844 Q141.5313,628.2188 141.6719,628.1406 Q141.8281,628.0625 142.0313,628.0625 Q142.3594,628.0625 142.6094,628.3281 Q142.875,628.5781 142.875,628.9219 Q142.875,629.2656 142.5313,629.6719 Q142.0313,630.25 141.2344,630.5781 Q140.1563,631.0313 138.8594,631.0313 Q137.3438,631.0313 136.1406,630.4063 Q135.1563,629.9063 134.4688,628.8438 Q133.7813,627.7656 133.7813,626.4844 L133.7813,625.3281 Q133.7813,624 134.3906,622.8594 Q135.0156,621.7031 136.1094,621.0938 Q137.2031,620.4688 138.4375,620.4688 Q139.1719,620.4688 139.8125,620.6406 Q140.4688,620.7969 141.0156,621.1563 Z "/><text fill="#000000" font-family="sans-serif" font-size="12" lengthAdjust="spacingAndGlyphs" textLength="101" x="158.75" y="630.1914">VirtualMatchmaker</text><line style="stroke: #A80036; stroke-width: 1.5;" x1="81" x2="305" y1="641.2813" y2="641.2813"/><rect fill="none" height="6" style="stroke: #C82930; stroke-width: 1.0;" width="6" x="88" y="649.2813"/><text fill="#000000" font-family="sans-serif" font-size="11" lengthAdjust="spacingAndGlyphs" textLength="176" x="100" y="656.7002">loggedPlayers : Map&lt;Integer, String&gt;</text><rect fill="none" height="6" style="stroke: #C82930; stroke-width: 1.0;" width="6" x="88" y="663.1172"/><text fill="#000000" font-family="sans-serif" font-size="11" lengthAdjust="spacingAndGlyphs" textLength="200" x="100" y="670.5361">matchCache : Map&lt;Integer, VirtualMatch&gt;</text><rect fill="none" height="6" style="stroke: #C82930; stroke-width: 1.0;" width="6" x="88" y="676.9531"/><text fill="#000000" font-family="sans-serif" font-size="11" lengthAdjust="spacingAndGlyphs" textLength="139" x="100" y="684.3721">matches : List&lt;VirtualMatch&gt;</text><line style="stroke: #A80036; stroke-width: 1.5;" x1="81" x2="305" y1="690.7891" y2="690.7891"/><ellipse cx="91" cy="701.7891" fill="#84BE84" rx="3" ry="3" style="stroke: #038048; stroke-width: 1.0;"/><text fill="#000000" font-family="sans-serif" font-size="11" lengthAdjust="spacingAndGlyphs" textLength="97" x="100" y="706.208">VirtualMatchmaker()</text><ellipse cx="91" cy="715.625" fill="#84BE84" rx="3" ry="3" style="stroke: #038048; stroke-width: 1.0;"/><text fill="#000000" font-family="sans-serif" font-size="11" lengthAdjust="spacingAndGlyphs" textLength="67" x="100" y="720.0439">onCommand()</text><ellipse cx="91" cy="729.4609" fill="#84BE84" rx="3" ry="3" style="stroke: #038048; stroke-width: 1.0;"/><text fill="#000000" font-family="sans-serif" font-size="11" lengthAdjust="spacingAndGlyphs" textLength="60" x="100" y="733.8799">onConnect()</text><ellipse cx="91" cy="743.2969" fill="#84BE84" rx="3" ry="3" style="stroke: #038048; stroke-width: 1.0;"/><text fill="#000000" font-family="sans-serif" font-size="11" lengthAdjust="spacingAndGlyphs" textLength="74" x="100" y="747.7158">onDisconnect()</text><ellipse cx="91" cy="757.1328" fill="#84BE84" rx="3" ry="3" style="stroke: #038048; stroke-width: 1.0;"/><text fill="#000000" font-family="sans-serif" font-size="11" lengthAdjust="spacingAndGlyphs" textLength="32" x="100" y="761.5518">send()</text><ellipse cx="91" cy="770.9688" fill="#84BE84" rx="3" ry="3" style="stroke: #038048; stroke-width: 1.0;"/><text fill="#000000" font-family="sans-serif" font-size="11" lengthAdjust="spacingAndGlyphs" textLength="30" x="100" y="775.3877">start()</text><ellipse cx="91" cy="784.8047" fill="#84BE84" rx="3" ry="3" style="stroke: #038048; stroke-width: 1.0;"/><text fill="#000000" font-family="sans-serif" font-size="11" lengthAdjust="spacingAndGlyphs" textLength="30" x="100" y="789.2236">start()</text><ellipse cx="91" cy="798.6406" fill="#84BE84" rx="3" ry="3" style="stroke: #038048; stroke-width: 1.0;"/><text fill="#000000" font-family="sans-serif" font-size="11" lengthAdjust="spacingAndGlyphs" textLength="55" x="100" y="803.0596">startSync()</text><ellipse cx="91" cy="812.4766" fill="#84BE84" rx="3" ry="3" style="stroke: #038048; stroke-width: 1.0;"/><text fill="#000000" font-family="sans-serif" font-size="11" lengthAdjust="spacingAndGlyphs" textLength="55" x="100" y="816.8955">startSync()</text><ellipse cx="91" cy="826.3125" fill="#84BE84" rx="3" ry="3" style="stroke: #038048; stroke-width: 1.0;"/><text fill="#000000" font-family="sans-serif" font-size="11" lengthAdjust="spacingAndGlyphs" textLength="29" x="100" y="830.7314">stop()</text><polygon fill="#4177AF" points="91,836.1484,87,842.1484,95,842.1484" style="stroke: #1963A0; stroke-width: 1.0;"/><text fill="#000000" font-family="sans-serif" font-size="11" lengthAdjust="spacingAndGlyphs" textLength="89" x="100" y="844.5674">isUsernameValid()</text><polygon fill="#4177AF" points="91,849.9844,87,855.9844,95,855.9844" style="stroke: #1963A0; stroke-width: 1.0;"/><text fill="#000000" font-family="sans-serif" font-size="11" lengthAdjust="spacingAndGlyphs" textLength="30" x="100" y="858.4033">login()</text><polygon fill="#4177AF" points="91,863.8203,87,869.8203,95,869.8203" style="stroke: #1963A0; stroke-width: 1.0;"/><text fill="#000000" font-family="sans-serif" font-size="11" lengthAdjust="spacingAndGlyphs" textLength="37" x="100" y="872.2393">logout()</text><polygon fill="#4177AF" points="91,877.6563,87,883.6563,95,883.6563" style="stroke: #1963A0; stroke-width: 1.0;"/><text fill="#000000" font-family="sans-serif" font-size="11" lengthAdjust="spacingAndGlyphs" textLength="103" x="100" y="886.0752">removeEndedMatch()</text><rect fill="#F24D5C" height="6" style="stroke: #C82930; stroke-width: 1.0;" width="6" x="88" y="892.4922"/><text fill="#000000" font-family="sans-serif" font-size="11" lengthAdjust="spacingAndGlyphs" textLength="53" x="100" y="899.9111">joinMatch()</text><!--MD5=[8db66b2ba4d0bc618102cf170189eb0d]
class it.polimi.ingsw.network.server.Server--><rect fill="#FEFECE" filter="url(#f1jovlq29jvtzm)" height="48" id="it.polimi.ingsw.network.server.Server" style="stroke: #A80036; stroke-width: 1.5;" width="67" x="159.5" y="1056.2813"/><ellipse cx="174.5" cy="1072.2813" fill="#ADD1B2" rx="11" ry="11" style="stroke: #A80036; stroke-width: 1.0;"/><path d="M177.2656,1068.1563 Q177.4219,1067.9375 177.6094,1067.8281 Q177.7969,1067.7188 178.0156,1067.7188 Q178.3906,1067.7188 178.625,1067.9844 Q178.8594,1068.2344 178.8594,1068.8438 L178.8594,1070.2969 Q178.8594,1070.9063 178.625,1071.1719 Q178.3906,1071.4375 178.0156,1071.4375 Q177.6719,1071.4375 177.4688,1071.2344 Q177.2656,1071.0469 177.1563,1070.5313 Q177.1094,1070.1719 176.9219,1069.9844 Q176.5938,1069.6094 175.9844,1069.3906 Q175.375,1069.1719 174.75,1069.1719 Q173.9844,1069.1719 173.3438,1069.5 Q172.7188,1069.8281 172.2188,1070.5781 Q171.7344,1071.3281 171.7344,1072.3594 L171.7344,1073.4531 Q171.7344,1074.6875 172.625,1075.5156 Q173.5156,1076.3281 175.1094,1076.3281 Q176.0469,1076.3281 176.7031,1076.0781 Q177.0938,1075.9219 177.5156,1075.4844 Q177.7813,1075.2188 177.9219,1075.1406 Q178.0781,1075.0625 178.2813,1075.0625 Q178.6094,1075.0625 178.8594,1075.3281 Q179.125,1075.5781 179.125,1075.9219 Q179.125,1076.2656 178.7813,1076.6719 Q178.2813,1077.25 177.4844,1077.5781 Q176.4063,1078.0313 175.1094,1078.0313 Q173.5938,1078.0313 172.3906,1077.4063 Q171.4063,1076.9063 170.7188,1075.8438 Q170.0313,1074.7656 170.0313,1073.4844 L170.0313,1072.3281 Q170.0313,1071 170.6406,1069.8594 Q171.2656,1068.7031 172.3594,1068.0938 Q173.4531,1067.4688 174.6875,1067.4688 Q175.4219,1067.4688 176.0625,1067.6406 Q176.7188,1067.7969 177.2656,1068.1563 Z "/><text fill="#000000" font-family="sans-serif" font-size="12" lengthAdjust="spacingAndGlyphs" textLength="35" x="188.5" y="1077.1914">Server</text><line style="stroke: #A80036; stroke-width: 1.5;" x1="160.5" x2="225.5" y1="1088.2813" y2="1088.2813"/><line style="stroke: #A80036; stroke-width: 1.5;" x1="160.5" x2="225.5" y1="1096.2813" y2="1096.2813"/><!--MD5=[7f2572443cef053da16afc6faf709040]
reverse link it.polimi.ingsw.network.INetworkForwarder to it.polimi.ingsw.network.matchmaking.VirtualMatch--><path d="M165,199.7503 C165,217.7033 165,239.5773 165,262.1163 " fill="none" id="it.polimi.ingsw.network.INetworkForwarder&lt;-it.polimi.ingsw.network.matchmaking.VirtualMatch" style="stroke: #A80036; stroke-width: 1.0; stroke-dasharray: 7.0,7.0;"/><polygon fill="none" points="158,199.6812,165,179.6812,172,199.6812,158,199.6812" style="stroke: #A80036; stroke-width: 1.0;"/><!--MD5=[9f12cc5ea6ca7c168103f1439b8bf172]
reverse link it.polimi.ingsw.network.matchmaking.VirtualMatch to it.polimi.ingsw.network.ICommandReceiver--><path d="M261.718,396.7813 C287.06,396.7813 313.924,396.7813 337.673,396.7813 " fill="none" id="it.polimi.ingsw.network.matchmaking.VirtualMatch&lt;-it.polimi.ingsw.network.ICommandReceiver" style="stroke: #A80036; stroke-width: 1.0;"/><polygon fill="#FFFFFF" points="248.63,396.7813,254.63,400.7813,260.63,396.7813,254.63,392.7813,248.63,396.7813" style="stroke: #A80036; stroke-width: 1.0;"/><text fill="#000000" font-family="sans-serif" font-size="13" lengthAdjust="spacingAndGlyphs" textLength="53" x="266.75" y="390.2764">controller</text><!--MD5=[d626bed8630e8adb5efcebb031ad0629]
reverse link it.polimi.ingsw.network.matchmaking.VirtualMatch to it.polimi.ingsw.network.matchmaking.VirtualMatchmaker--><path d="M112.3,544.7653 C111.864,556.4023 112.633,568.0103 115,579.2813 C117.076,589.1633 119.736,599.1673 122.815,609.1283 " fill="none" id="it.polimi.ingsw.network.matchmaking.VirtualMatch&lt;-it.polimi.ingsw.network.matchmaking.VirtualMatchmaker" style="stroke: #A80036; stroke-width: 1.0;"/><polygon fill="#FFFFFF" points="113.282,531.6303,108.8455,537.3151,112.3867,543.5968,116.8232,537.912,113.282,531.6303" style="stroke: #A80036; stroke-width: 1.0;"/><text fill="#000000" font-family="sans-serif" font-size="13" lengthAdjust="spacingAndGlyphs" textLength="72" x="116" y="575.7764">matchmaker</text><!--MD5=[47808331912521119d2dc0b40d3d9c9c]
reverse link it.polimi.ingsw.network.ICommandReceiver to it.polimi.ingsw.network.matchmaking.VirtualMatchmaker--><path d="M384.843,437.9313 C359.865,479.4462 319.353,546.7783 281.979,608.8943 " fill="none" id="it.polimi.ingsw.network.ICommandReceiver&lt;-it.polimi.ingsw.network.matchmaking.VirtualMatchmaker" style="stroke: #A80036; stroke-width: 1.0; stroke-dasharray: 7.0,7.0;"/><polygon fill="none" points="378.851,434.3133,395.16,420.7843,390.847,441.5303,378.851,434.3133" style="stroke: #A80036; stroke-width: 1.0;"/><!--MD5=[341e57a160947cd09f93b47d8c1c63d1]
reverse link it.polimi.ingsw.network.matchmaking.VirtualMatchmaker to it.polimi.ingsw.network.server.Server--><path d="M193,919.6073 C193,973.1803 193,1026.6683 193,1056.1189 " fill="none" id="it.polimi.ingsw.network.matchmaking.VirtualMatchmaker&lt;-it.polimi.ingsw.network.server.Server" style="stroke: #A80036; stroke-width: 1.0;"/><polygon fill="#FFFFFF" points="193,906.3673,189,912.3673,193,918.3673,197,912.3673,193,906.3673" style="stroke: #A80036; stroke-width: 1.0;"/><text fill="#000000" font-family="sans-serif" font-size="13" lengthAdjust="spacingAndGlyphs" textLength="34" x="194" y="1000.7764">server</text><text fill="#888888" font-family="sans-serif" font-size="10" lengthAdjust="spacingAndGlyphs" textLength="0" x="524" y="1136.6621"/><text fill="#888888" font-family="sans-serif" font-size="10" lengthAdjust="spacingAndGlyphs" textLength="0" x="524" y="1149.2402"/><text fill="#888888" font-family="sans-serif" font-size="10" lengthAdjust="spacingAndGlyphs" textLength="392" x="132" y="1161.8184">PlantUML diagram generated by SketchIt! (https://bitbucket.org/pmesmeur/sketch.it)</text><text fill="#888888" font-family="sans-serif" font-size="10" lengthAdjust="spacingAndGlyphs" textLength="394" x="130" y="1174.3965">For more information about this tool, please contact philippe.mesmeur@gmail.com</text><!--MD5=[d725ec5c768a5ef03db2b56662c1b1fa]
@startuml

title __MATCHMAKING's Class Diagram__\n

  namespace it.polimi.ingsw {
    namespace network {
      namespace matchmaking {
        class it.polimi.ingsw.network.matchmaking.VirtualMatch {
            - isEnded : AtomicBoolean
            - isStarted : AtomicBoolean
            - players : List<Integer>
            + VirtualMatch()
            + addPlayer()
            + execAction()
            + getBroadCastID()
            + getDefaultPort()
            + getPlayerIDs()
            + getServerID()
            + isFull()
            + isWaiting()
            + playerCount()
            + removePlayer()
            + removePlayerNoDisconnect()
            + send()
        }
      }
    }
  }
  

  namespace it.polimi.ingsw {
    namespace network {
      namespace matchmaking {
        class it.polimi.ingsw.network.matchmaking.VirtualMatchmaker {
            - loggedPlayers : Map<Integer, String>
            - matchCache : Map<Integer, VirtualMatch>
            - matches : List<VirtualMatch>
            + VirtualMatchmaker()
            + onCommand()
            + onConnect()
            + onDisconnect()
            + send()
            + start()
            + start()
            + startSync()
            + startSync()
            + stop()
            ~ isUsernameValid()
            ~ login()
            ~ logout()
            ~ removeEndedMatch()
            - joinMatch()
        }
      }
    }
  }
  

  it.polimi.ingsw.network.matchmaking.VirtualMatch .up.|> it.polimi.ingsw.network.INetworkForwarder
  it.polimi.ingsw.network.matchmaking.VirtualMatch o- - it.polimi.ingsw.network.ICommandReceiver : controller
  it.polimi.ingsw.network.matchmaking.VirtualMatch o- - it.polimi.ingsw.network.matchmaking.VirtualMatchmaker : matchmaker
  it.polimi.ingsw.network.matchmaking.VirtualMatchmaker .up.|> it.polimi.ingsw.network.ICommandReceiver
  it.polimi.ingsw.network.matchmaking.VirtualMatchmaker o- - it.polimi.ingsw.network.server.Server : server


right footer


PlantUML diagram generated by SketchIt! (https://bitbucket.org/pmesmeur/sketch.it)
For more information about this tool, please contact philippe.mesmeur@gmail.com
endfooter

@enduml

PlantUML version 1.2020.14(Sat Jun 20 16:14:34 CEST 2020)
(GPL source distribution)
Java Runtime: Java(TM) SE Runtime Environment
JVM: Java HotSpot(TM) 64-Bit Server VM
Default Encoding: Cp1252
Language: it
Country: IT
--></g></svg>