<?xml version="1.0" encoding="UTF-8" standalone="no"?><svg xmlns="http://www.w3.org/2000/svg" xmlns:xlink="http://www.w3.org/1999/xlink" contentScriptType="application/ecmascript" contentStyleType="text/css" height="855px" preserveAspectRatio="none" style="width:909px;height:855px;" version="1.1" viewBox="0 0 909 855" width="909px" zoomAndPan="magnify"><defs><filter height="300%" id="fngz68ouc9biu" width="300%" x="-1" y="-1"><feGaussianBlur result="blurOut" stdDeviation="2.0"/><feColorMatrix in="blurOut" result="blurOut2" type="matrix" values="0 0 0 0 0 0 0 0 0 0 0 0 0 0 0 0 0 0 .4 0"/><feOffset dx="4.0" dy="4.0" in="blurOut2" result="blurOut3"/><feBlend in="SourceGraphic" in2="blurOut3" mode="normal"/></filter></defs><g><text fill="#000000" font-family="sans-serif" font-size="18" lengthAdjust="spacingAndGlyphs" text-decoration="underline" textLength="227" x="332" y="18.6855">NETWORK's Class Diagram</text><text fill="#000000" font-family="sans-serif" font-size="18" lengthAdjust="spacingAndGlyphs" textLength="0" x="448" y="41.3262"/><!--MD5=[432dd831305d7709bed0fe1447e3cfc7]
cluster it.polimi.ingsw--><polygon fill="#FFFFFF" filter="url(#fngz68ouc9biu)" points="16,51.2813,122,51.2813,129,74.8906,391,74.8906,391,788.2813,16,788.2813,16,51.2813" style="stroke: #000000; stroke-width: 1.5;"/><line style="stroke: #000000; stroke-width: 1.5;" x1="16" x2="129" y1="74.8906" y2="74.8906"/><text fill="#000000" font-family="sans-serif" font-size="14" font-weight="bold" lengthAdjust="spacingAndGlyphs" textLength="100" x="20" y="67.8145">it.polimi.ingsw</text><!--MD5=[1051524154ce11174f76d97393e7fa59]
cluster it.polimi.ingsw.network--><polygon fill="#FFFFFF" filter="url(#fngz68ouc9biu)" points="40,95.2813,103,95.2813,110,118.8906,367,118.8906,367,764.2813,40,764.2813,40,95.2813" style="stroke: #000000; stroke-width: 1.5;"/><line style="stroke: #000000; stroke-width: 1.5;" x1="40" x2="110" y1="118.8906" y2="118.8906"/><text fill="#000000" font-family="sans-serif" font-size="14" font-weight="bold" lengthAdjust="spacingAndGlyphs" textLength="57" x="44" y="111.8145">network</text><!--MD5=[bf7d57d77e8f45216f1e476cae5c6d8e]
cluster it.polimi.ingsw.network.client--><polygon fill="#FFFFFF" filter="url(#fngz68ouc9biu)" points="415,643.2813,625,643.2813,632,666.8906,635,666.8906,635,743.2813,415,743.2813,415,643.2813" style="stroke: #000000; stroke-width: 1.5;"/><line style="stroke: #000000; stroke-width: 1.5;" x1="415" x2="632" y1="666.8906" y2="666.8906"/><text fill="#000000" font-family="sans-serif" font-size="14" font-weight="bold" lengthAdjust="spacingAndGlyphs" textLength="204" x="419" y="659.8145">it.polimi.ingsw.network.client</text><!--MD5=[f41b0b3ca4be87aefc732ab580a26293]
cluster it.polimi.ingsw.network.server--><polygon fill="#FFFFFF" filter="url(#fngz68ouc9biu)" points="659,643.2813,877,643.2813,884,666.8906,887,666.8906,887,743.2813,659,743.2813,659,643.2813" style="stroke: #000000; stroke-width: 1.5;"/><line style="stroke: #000000; stroke-width: 1.5;" x1="659" x2="884" y1="666.8906" y2="666.8906"/><text fill="#000000" font-family="sans-serif" font-size="14" font-weight="bold" lengthAdjust="spacingAndGlyphs" textLength="212" x="663" y="659.8145">it.polimi.ingsw.network.server</text><!--MD5=[1e8c947f8210394413475712e15072ae]
class it.polimi.ingsw.network.ICommandReceiver--><rect fill="#FEFECE" filter="url(#fngz68ouc9biu)" height="89.5078" id="it.polimi.ingsw.network.ICommandReceiver" style="stroke: #A80036; stroke-width: 1.5;" width="144" x="207" y="658.2813"/><ellipse cx="222" cy="674.2813" fill="#B4A7E5" rx="11" ry="11" style="stroke: #A80036; stroke-width: 1.0;"/><path d="M222.9531,670.9219 L222.9531,677.5781 L224.6719,677.5781 Q225.2813,677.5781 225.5469,677.8125 Q225.8125,678.0469 225.8125,678.4375 Q225.8125,678.8125 225.5469,679.0469 Q225.2813,679.2813 224.6719,679.2813 L219.5313,679.2813 Q218.9219,679.2813 218.6563,679.0469 Q218.3906,678.8125 218.3906,678.4219 Q218.3906,678.0469 218.6563,677.8125 Q218.9219,677.5781 219.5313,677.5781 L221.25,677.5781 L221.25,670.9219 L219.5313,670.9219 Q218.9219,670.9219 218.6563,670.6875 Q218.3906,670.4531 218.3906,670.0625 Q218.3906,669.6875 218.6563,669.4531 Q218.9219,669.2188 219.5313,669.2188 L224.6719,669.2188 Q225.2813,669.2188 225.5469,669.4531 Q225.8125,669.6875 225.8125,670.0625 Q225.8125,670.4531 225.5469,670.6875 Q225.2813,670.9219 224.6719,670.9219 L222.9531,670.9219 Z "/><text fill="#000000" font-family="sans-serif" font-size="12" font-style="italic" lengthAdjust="spacingAndGlyphs" textLength="112" x="236" y="679.1914">ICommandReceiver</text><line style="stroke: #A80036; stroke-width: 1.5;" x1="208" x2="350" y1="690.2813" y2="690.2813"/><line style="stroke: #A80036; stroke-width: 1.5;" x1="208" x2="350" y1="698.2813" y2="698.2813"/><ellipse cx="218" cy="709.2813" fill="#84BE84" rx="3" ry="3" style="stroke: #038048; stroke-width: 1.0;"/><text fill="#000000" font-family="sans-serif" font-size="11" font-style="italic" lengthAdjust="spacingAndGlyphs" textLength="70" x="227" y="713.7002">onCommand()</text><ellipse cx="218" cy="723.1172" fill="#84BE84" rx="3" ry="3" style="stroke: #038048; stroke-width: 1.0;"/><text fill="#000000" font-family="sans-serif" font-size="11" font-style="italic" lengthAdjust="spacingAndGlyphs" textLength="61" x="227" y="727.5361">onConnect()</text><ellipse cx="218" cy="736.9531" fill="#84BE84" rx="3" ry="3" style="stroke: #038048; stroke-width: 1.0;"/><text fill="#000000" font-family="sans-serif" font-size="11" font-style="italic" lengthAdjust="spacingAndGlyphs" textLength="76" x="227" y="741.3721">onDisconnect()</text><!--MD5=[f1401b3084b8221c5c295c93e162d20d]
class it.polimi.ingsw.network.INetworkAdapter--><rect fill="#FEFECE" filter="url(#fngz68ouc9biu)" height="158.6875" id="it.polimi.ingsw.network.INetworkAdapter" style="stroke: #A80036; stroke-width: 1.5;" width="124" x="227" y="131.2813"/><ellipse cx="242" cy="147.2813" fill="#B4A7E5" rx="11" ry="11" style="stroke: #A80036; stroke-width: 1.0;"/><path d="M242.9531,143.9219 L242.9531,150.5781 L244.6719,150.5781 Q245.2813,150.5781 245.5469,150.8125 Q245.8125,151.0469 245.8125,151.4375 Q245.8125,151.8125 245.5469,152.0469 Q245.2813,152.2813 244.6719,152.2813 L239.5313,152.2813 Q238.9219,152.2813 238.6563,152.0469 Q238.3906,151.8125 238.3906,151.4219 Q238.3906,151.0469 238.6563,150.8125 Q238.9219,150.5781 239.5313,150.5781 L241.25,150.5781 L241.25,143.9219 L239.5313,143.9219 Q238.9219,143.9219 238.6563,143.6875 Q238.3906,143.4531 238.3906,143.0625 Q238.3906,142.6875 238.6563,142.4531 Q238.9219,142.2188 239.5313,142.2188 L244.6719,142.2188 Q245.2813,142.2188 245.5469,142.4531 Q245.8125,142.6875 245.8125,143.0625 Q245.8125,143.4531 245.5469,143.6875 Q245.2813,143.9219 244.6719,143.9219 L242.9531,143.9219 Z "/><text fill="#000000" font-family="sans-serif" font-size="12" font-style="italic" lengthAdjust="spacingAndGlyphs" textLength="92" x="256" y="152.1914">INetworkAdapter</text><line style="stroke: #A80036; stroke-width: 1.5;" x1="228" x2="350" y1="163.2813" y2="163.2813"/><line style="stroke: #A80036; stroke-width: 1.5;" x1="228" x2="350" y1="171.2813" y2="171.2813"/><ellipse cx="238" cy="182.2813" fill="#84BE84" rx="3" ry="3" style="stroke: #038048; stroke-width: 1.0;"/><text fill="#000000" font-family="sans-serif" font-size="11" font-style="italic" lengthAdjust="spacingAndGlyphs" textLength="47" x="247" y="186.7002">connect()</text><ellipse cx="238" cy="196.1172" fill="#84BE84" rx="3" ry="3" style="stroke: #038048; stroke-width: 1.0;"/><text fill="#000000" font-family="sans-serif" font-size="11" font-style="italic" lengthAdjust="spacingAndGlyphs" textLength="62" x="247" y="200.5361">disconnect()</text><ellipse cx="238" cy="209.9531" fill="#84BE84" rx="3" ry="3" style="stroke: #038048; stroke-width: 1.0;"/><text fill="#000000" font-family="sans-serif" font-size="11" font-style="italic" lengthAdjust="spacingAndGlyphs" textLength="63" x="247" y="214.3721">getClientID()</text><ellipse cx="238" cy="223.7891" fill="#84BE84" rx="3" ry="3" style="stroke: #038048; stroke-width: 1.0;"/><text fill="#000000" font-family="sans-serif" font-size="11" font-style="italic" lengthAdjust="spacingAndGlyphs" textLength="88" x="247" y="228.208">removeReceiver()</text><ellipse cx="238" cy="237.625" fill="#84BE84" rx="3" ry="3" style="stroke: #038048; stroke-width: 1.0;"/><text fill="#000000" font-family="sans-serif" font-size="11" font-style="italic" lengthAdjust="spacingAndGlyphs" textLength="67" x="247" y="242.0439">setReceiver()</text><ellipse cx="238" cy="251.4609" fill="#84BE84" rx="3" ry="3" style="stroke: #038048; stroke-width: 1.0;"/><text fill="#000000" font-family="sans-serif" font-size="11" font-style="italic" lengthAdjust="spacingAndGlyphs" textLength="62" x="247" y="255.8799">startServer()</text><ellipse cx="238" cy="265.2969" fill="#84BE84" rx="3" ry="3" style="stroke: #038048; stroke-width: 1.0;"/><text fill="#000000" font-family="sans-serif" font-size="11" font-style="italic" lengthAdjust="spacingAndGlyphs" textLength="62" x="247" y="269.7158">startServer()</text><ellipse cx="238" cy="279.1328" fill="#84BE84" rx="3" ry="3" style="stroke: #038048; stroke-width: 1.0;"/><text fill="#000000" font-family="sans-serif" font-size="11" font-style="italic" lengthAdjust="spacingAndGlyphs" textLength="61" x="247" y="283.5518">stopServer()</text><!--MD5=[11a498b57674a50a50405ff21f95364b]
class it.polimi.ingsw.network.INetworkForwarder--><rect fill="#FEFECE" filter="url(#fngz68ouc9biu)" height="103.3438" id="it.polimi.ingsw.network.INetworkForwarder" style="stroke: #A80036; stroke-width: 1.5;" width="136" x="56" y="159.2813"/><ellipse cx="71" cy="175.2813" fill="#B4A7E5" rx="11" ry="11" style="stroke: #A80036; stroke-width: 1.0;"/><path d="M71.9531,171.9219 L71.9531,178.5781 L73.6719,178.5781 Q74.2813,178.5781 74.5469,178.8125 Q74.8125,179.0469 74.8125,179.4375 Q74.8125,179.8125 74.5469,180.0469 Q74.2813,180.2813 73.6719,180.2813 L68.5313,180.2813 Q67.9219,180.2813 67.6563,180.0469 Q67.3906,179.8125 67.3906,179.4219 Q67.3906,179.0469 67.6563,178.8125 Q67.9219,178.5781 68.5313,178.5781 L70.25,178.5781 L70.25,171.9219 L68.5313,171.9219 Q67.9219,171.9219 67.6563,171.6875 Q67.3906,171.4531 67.3906,171.0625 Q67.3906,170.6875 67.6563,170.4531 Q67.9219,170.2188 68.5313,170.2188 L73.6719,170.2188 Q74.2813,170.2188 74.5469,170.4531 Q74.8125,170.6875 74.8125,171.0625 Q74.8125,171.4531 74.5469,171.6875 Q74.2813,171.9219 73.6719,171.9219 L71.9531,171.9219 Z "/><text fill="#000000" font-family="sans-serif" font-size="12" font-style="italic" lengthAdjust="spacingAndGlyphs" textLength="104" x="85" y="180.1914">INetworkForwarder</text><line style="stroke: #A80036; stroke-width: 1.5;" x1="57" x2="191" y1="191.2813" y2="191.2813"/><line style="stroke: #A80036; stroke-width: 1.5;" x1="57" x2="191" y1="199.2813" y2="199.2813"/><ellipse cx="67" cy="210.2813" fill="#84BE84" rx="3" ry="3" style="stroke: #038048; stroke-width: 1.0;"/><text fill="#000000" font-family="sans-serif" font-size="11" font-style="italic" lengthAdjust="spacingAndGlyphs" textLength="86" x="76" y="214.7002">getBroadCastID()</text><ellipse cx="67" cy="224.1172" fill="#84BE84" rx="3" ry="3" style="stroke: #038048; stroke-width: 1.0;"/><text fill="#000000" font-family="sans-serif" font-size="11" font-style="italic" lengthAdjust="spacingAndGlyphs" textLength="78" x="76" y="228.5361">getDefaultPort()</text><ellipse cx="67" cy="237.9531" fill="#84BE84" rx="3" ry="3" style="stroke: #038048; stroke-width: 1.0;"/><text fill="#000000" font-family="sans-serif" font-size="11" font-style="italic" lengthAdjust="spacingAndGlyphs" textLength="66" x="76" y="242.3721">getServerID()</text><ellipse cx="67" cy="251.7891" fill="#84BE84" rx="3" ry="3" style="stroke: #038048; stroke-width: 1.0;"/><text fill="#000000" font-family="sans-serif" font-size="11" font-style="italic" lengthAdjust="spacingAndGlyphs" textLength="32" x="76" y="256.208">send()</text><!--MD5=[4c786450691b29d557235c795eaf3367]
class it.polimi.ingsw.network.TPCNetwork--><rect fill="#FEFECE" filter="url(#fngz68ouc9biu)" height="227.8672" id="it.polimi.ingsw.network.TPCNetwork" style="stroke: #A80036; stroke-width: 1.5;" width="120" x="230" y="351.2813"/><ellipse cx="253.55" cy="367.2813" fill="#ADD1B2" rx="11" ry="11" style="stroke: #A80036; stroke-width: 1.0;"/><path d="M256.3156,363.1563 Q256.4719,362.9375 256.6594,362.8281 Q256.8469,362.7188 257.0656,362.7188 Q257.4406,362.7188 257.675,362.9844 Q257.9094,363.2344 257.9094,363.8438 L257.9094,365.2969 Q257.9094,365.9063 257.675,366.1719 Q257.4406,366.4375 257.0656,366.4375 Q256.7219,366.4375 256.5188,366.2344 Q256.3156,366.0469 256.2063,365.5313 Q256.1594,365.1719 255.9719,364.9844 Q255.6438,364.6094 255.0344,364.3906 Q254.425,364.1719 253.8,364.1719 Q253.0344,364.1719 252.3938,364.5 Q251.7688,364.8281 251.2688,365.5781 Q250.7844,366.3281 250.7844,367.3594 L250.7844,368.4531 Q250.7844,369.6875 251.675,370.5156 Q252.5656,371.3281 254.1594,371.3281 Q255.0969,371.3281 255.7531,371.0781 Q256.1438,370.9219 256.5656,370.4844 Q256.8313,370.2188 256.9719,370.1406 Q257.1281,370.0625 257.3313,370.0625 Q257.6594,370.0625 257.9094,370.3281 Q258.175,370.5781 258.175,370.9219 Q258.175,371.2656 257.8313,371.6719 Q257.3313,372.25 256.5344,372.5781 Q255.4563,373.0313 254.1594,373.0313 Q252.6438,373.0313 251.4406,372.4063 Q250.4563,371.9063 249.7688,370.8438 Q249.0813,369.7656 249.0813,368.4844 L249.0813,367.3281 Q249.0813,366 249.6906,364.8594 Q250.3156,363.7031 251.4094,363.0938 Q252.5031,362.4688 253.7375,362.4688 Q254.4719,362.4688 255.1125,362.6406 Q255.7688,362.7969 256.3156,363.1563 Z "/><text fill="#000000" font-family="sans-serif" font-size="12" lengthAdjust="spacingAndGlyphs" textLength="69" x="269.45" y="372.1914">TPCNetwork</text><line style="stroke: #A80036; stroke-width: 1.5;" x1="231" x2="349" y1="383.2813" y2="383.2813"/><polygon fill="none" points="241,390.2813,237,396.2813,245,396.2813" style="stroke: #1963A0; stroke-width: 1.0;"/><text fill="#000000" font-family="sans-serif" font-size="11" lengthAdjust="spacingAndGlyphs" textLength="94" x="250" y="398.7002">isRunning : boolean</text><line style="stroke: #A80036; stroke-width: 1.5;" x1="231" x2="349" y1="405.1172" y2="405.1172"/><ellipse cx="241" cy="416.1172" fill="#84BE84" rx="3" ry="3" style="stroke: #038048; stroke-width: 1.0;"/><text fill="#000000" font-family="sans-serif" font-size="11" lengthAdjust="spacingAndGlyphs" textLength="47" x="250" y="420.5361">connect()</text><ellipse cx="241" cy="429.9531" fill="#84BE84" rx="3" ry="3" style="stroke: #038048; stroke-width: 1.0;"/><text fill="#000000" font-family="sans-serif" font-size="11" lengthAdjust="spacingAndGlyphs" textLength="61" x="250" y="434.3721">disconnect()</text><ellipse cx="241" cy="443.7891" fill="#84BE84" rx="3" ry="3" style="stroke: #038048; stroke-width: 1.0;"/><text fill="#000000" font-family="sans-serif" font-size="11" lengthAdjust="spacingAndGlyphs" textLength="83" x="250" y="448.208">getBroadCastID()</text><ellipse cx="241" cy="457.625" fill="#84BE84" rx="3" ry="3" style="stroke: #038048; stroke-width: 1.0;"/><text fill="#000000" font-family="sans-serif" font-size="11" lengthAdjust="spacingAndGlyphs" textLength="58" x="250" y="462.0439">getClientID()</text><ellipse cx="241" cy="471.4609" fill="#84BE84" rx="3" ry="3" style="stroke: #038048; stroke-width: 1.0;"/><text fill="#000000" font-family="sans-serif" font-size="11" lengthAdjust="spacingAndGlyphs" textLength="76" x="250" y="475.8799">getDefaultPort()</text><ellipse cx="241" cy="485.2969" fill="#84BE84" rx="3" ry="3" style="stroke: #038048; stroke-width: 1.0;"/><text fill="#000000" font-family="sans-serif" font-size="11" lengthAdjust="spacingAndGlyphs" textLength="65" x="250" y="489.7158">getServerID()</text><ellipse cx="241" cy="499.1328" fill="#84BE84" rx="3" ry="3" style="stroke: #038048; stroke-width: 1.0;"/><text fill="#000000" font-family="sans-serif" font-size="11" lengthAdjust="spacingAndGlyphs" textLength="87" x="250" y="503.5518">removeReceiver()</text><ellipse cx="241" cy="512.9688" fill="#84BE84" rx="3" ry="3" style="stroke: #038048; stroke-width: 1.0;"/><text fill="#000000" font-family="sans-serif" font-size="11" lengthAdjust="spacingAndGlyphs" textLength="32" x="250" y="517.3877">send()</text><ellipse cx="241" cy="526.8047" fill="#84BE84" rx="3" ry="3" style="stroke: #038048; stroke-width: 1.0;"/><text fill="#000000" font-family="sans-serif" font-size="11" lengthAdjust="spacingAndGlyphs" textLength="66" x="250" y="531.2236">setReceiver()</text><ellipse cx="241" cy="540.6406" fill="#84BE84" rx="3" ry="3" style="stroke: #038048; stroke-width: 1.0;"/><text fill="#000000" font-family="sans-serif" font-size="11" lengthAdjust="spacingAndGlyphs" textLength="63" x="250" y="545.0596">startServer()</text><ellipse cx="241" cy="554.4766" fill="#84BE84" rx="3" ry="3" style="stroke: #038048; stroke-width: 1.0;"/><text fill="#000000" font-family="sans-serif" font-size="11" lengthAdjust="spacingAndGlyphs" textLength="63" x="250" y="558.8955">startServer()</text><ellipse cx="241" cy="568.3125" fill="#84BE84" rx="3" ry="3" style="stroke: #038048; stroke-width: 1.0;"/><text fill="#000000" font-family="sans-serif" font-size="11" lengthAdjust="spacingAndGlyphs" textLength="62" x="250" y="572.7314">stopServer()</text><!--MD5=[f434d44245e47afea72e6c6c1eeab62f]
class it.polimi.ingsw.network.client.Client--><rect fill="#FEFECE" filter="url(#fngz68ouc9biu)" height="48" id="it.polimi.ingsw.network.client.Client" style="stroke: #A80036; stroke-width: 1.5;" width="64" x="431" y="679.2813"/><ellipse cx="446" cy="695.2813" fill="#ADD1B2" rx="11" ry="11" style="stroke: #A80036; stroke-width: 1.0;"/><path d="M448.7656,691.1563 Q448.9219,690.9375 449.1094,690.8281 Q449.2969,690.7188 449.5156,690.7188 Q449.8906,690.7188 450.125,690.9844 Q450.3594,691.2344 450.3594,691.8438 L450.3594,693.2969 Q450.3594,693.9063 450.125,694.1719 Q449.8906,694.4375 449.5156,694.4375 Q449.1719,694.4375 448.9688,694.2344 Q448.7656,694.0469 448.6563,693.5313 Q448.6094,693.1719 448.4219,692.9844 Q448.0938,692.6094 447.4844,692.3906 Q446.875,692.1719 446.25,692.1719 Q445.4844,692.1719 444.8438,692.5 Q444.2188,692.8281 443.7188,693.5781 Q443.2344,694.3281 443.2344,695.3594 L443.2344,696.4531 Q443.2344,697.6875 444.125,698.5156 Q445.0156,699.3281 446.6094,699.3281 Q447.5469,699.3281 448.2031,699.0781 Q448.5938,698.9219 449.0156,698.4844 Q449.2813,698.2188 449.4219,698.1406 Q449.5781,698.0625 449.7813,698.0625 Q450.1094,698.0625 450.3594,698.3281 Q450.625,698.5781 450.625,698.9219 Q450.625,699.2656 450.2813,699.6719 Q449.7813,700.25 448.9844,700.5781 Q447.9063,701.0313 446.6094,701.0313 Q445.0938,701.0313 443.8906,700.4063 Q442.9063,699.9063 442.2188,698.8438 Q441.5313,697.7656 441.5313,696.4844 L441.5313,695.3281 Q441.5313,694 442.1406,692.8594 Q442.7656,691.7031 443.8594,691.0938 Q444.9531,690.4688 446.1875,690.4688 Q446.9219,690.4688 447.5625,690.6406 Q448.2188,690.7969 448.7656,691.1563 Z "/><text fill="#000000" font-family="sans-serif" font-size="12" lengthAdjust="spacingAndGlyphs" textLength="32" x="460" y="700.1914">Client</text><line style="stroke: #A80036; stroke-width: 1.5;" x1="432" x2="494" y1="711.2813" y2="711.2813"/><line style="stroke: #A80036; stroke-width: 1.5;" x1="432" x2="494" y1="719.2813" y2="719.2813"/><!--MD5=[8db66b2ba4d0bc618102cf170189eb0d]
class it.polimi.ingsw.network.server.Server--><rect fill="#FEFECE" filter="url(#fngz68ouc9biu)" height="48" id="it.polimi.ingsw.network.server.Server" style="stroke: #A80036; stroke-width: 1.5;" width="67" x="675.5" y="679.2813"/><ellipse cx="690.5" cy="695.2813" fill="#ADD1B2" rx="11" ry="11" style="stroke: #A80036; stroke-width: 1.0;"/><path d="M693.2656,691.1563 Q693.4219,690.9375 693.6094,690.8281 Q693.7969,690.7188 694.0156,690.7188 Q694.3906,690.7188 694.625,690.9844 Q694.8594,691.2344 694.8594,691.8438 L694.8594,693.2969 Q694.8594,693.9063 694.625,694.1719 Q694.3906,694.4375 694.0156,694.4375 Q693.6719,694.4375 693.4688,694.2344 Q693.2656,694.0469 693.1563,693.5313 Q693.1094,693.1719 692.9219,692.9844 Q692.5938,692.6094 691.9844,692.3906 Q691.375,692.1719 690.75,692.1719 Q689.9844,692.1719 689.3438,692.5 Q688.7188,692.8281 688.2188,693.5781 Q687.7344,694.3281 687.7344,695.3594 L687.7344,696.4531 Q687.7344,697.6875 688.625,698.5156 Q689.5156,699.3281 691.1094,699.3281 Q692.0469,699.3281 692.7031,699.0781 Q693.0938,698.9219 693.5156,698.4844 Q693.7813,698.2188 693.9219,698.1406 Q694.0781,698.0625 694.2813,698.0625 Q694.6094,698.0625 694.8594,698.3281 Q695.125,698.5781 695.125,698.9219 Q695.125,699.2656 694.7813,699.6719 Q694.2813,700.25 693.4844,700.5781 Q692.4063,701.0313 691.1094,701.0313 Q689.5938,701.0313 688.3906,700.4063 Q687.4063,699.9063 686.7188,698.8438 Q686.0313,697.7656 686.0313,696.4844 L686.0313,695.3281 Q686.0313,694 686.6406,692.8594 Q687.2656,691.7031 688.3594,691.0938 Q689.4531,690.4688 690.6875,690.4688 Q691.4219,690.4688 692.0625,690.6406 Q692.7188,690.7969 693.2656,691.1563 Z "/><text fill="#000000" font-family="sans-serif" font-size="12" lengthAdjust="spacingAndGlyphs" textLength="35" x="704.5" y="700.1914">Server</text><line style="stroke: #A80036; stroke-width: 1.5;" x1="676.5" x2="741.5" y1="711.2813" y2="711.2813"/><line style="stroke: #A80036; stroke-width: 1.5;" x1="676.5" x2="741.5" y1="719.2813" y2="719.2813"/><!--MD5=[141307bc0d185d3b28a3592c9bbf8752]
reverse link it.polimi.ingsw.network.INetworkAdapter to it.polimi.ingsw.network.TPCNetwork--><path d="M289.392,310.6723 C289.444,323.9213 289.498,337.5923 289.552,351.0633 " fill="none" id="it.polimi.ingsw.network.INetworkAdapter&lt;-it.polimi.ingsw.network.TPCNetwork" style="stroke: #A80036; stroke-width: 1.0; stroke-dasharray: 7.0,7.0;"/><polygon fill="none" points="282.39,310.3173,289.311,290.2893,296.39,310.2623,282.39,310.3173" style="stroke: #A80036; stroke-width: 1.0;"/><!--MD5=[43f64a67ea03045b48fd2d6930e70498]
reverse link it.polimi.ingsw.network.TPCNetwork to it.polimi.ingsw.network.client.Client--><path d="M357.877,558.8763 C389.971,602.6583 425.657,651.3403 446.104,679.2333 " fill="none" id="it.polimi.ingsw.network.TPCNetwork&lt;-it.polimi.ingsw.network.client.Client" style="stroke: #A80036; stroke-width: 1.0;"/><polygon fill="#FFFFFF" points="350.021,548.1603,350.3423,555.3642,357.1157,557.8383,356.7944,550.6344,350.021,548.1603" style="stroke: #A80036; stroke-width: 1.0;"/><text fill="#000000" font-family="sans-serif" font-size="13" lengthAdjust="spacingAndGlyphs" textLength="31" x="408" y="623.7764">client</text><!--MD5=[5de2e92707d81d6a95af92a615f53c87]
reverse link it.polimi.ingsw.network.TPCNetwork to it.polimi.ingsw.network.ICommandReceiver--><path d="M284.115,592.5323 C283.019,616.0543 281.943,639.1373 281.063,658.0173 " fill="none" id="it.polimi.ingsw.network.TPCNetwork&lt;-it.polimi.ingsw.network.ICommandReceiver" style="stroke: #A80036; stroke-width: 1.0;"/><polygon fill="#FFFFFF" points="284.726,579.4423,280.4508,585.2494,284.1669,591.4292,288.4421,585.6221,284.726,579.4423" style="stroke: #A80036; stroke-width: 1.0;"/><text fill="#000000" font-family="sans-serif" font-size="13" lengthAdjust="spacingAndGlyphs" textLength="44" x="284" y="623.7764">receiver</text><!--MD5=[cd0dae373148a8692fd45494b92d6356]
reverse link it.polimi.ingsw.network.TPCNetwork to it.polimi.ingsw.network.server.Server--><path d="M361.401,506.4973 C452.801,557.9783 607.44,645.0783 675.334,683.3193 " fill="none" id="it.polimi.ingsw.network.TPCNetwork&lt;-it.polimi.ingsw.network.server.Server" style="stroke: #A80036; stroke-width: 1.0;"/><polygon fill="#FFFFFF" points="350.032,500.0943,353.2964,506.5242,360.4872,505.9839,357.2228,499.554,350.032,500.0943" style="stroke: #A80036; stroke-width: 1.0;"/><text fill="#000000" font-family="sans-serif" font-size="13" lengthAdjust="spacingAndGlyphs" textLength="34" x="574" y="623.7764">server</text><text fill="#888888" font-family="sans-serif" font-size="10" lengthAdjust="spacingAndGlyphs" textLength="0" x="891" y="804.6621"/><text fill="#888888" font-family="sans-serif" font-size="10" lengthAdjust="spacingAndGlyphs" textLength="0" x="891" y="817.2402"/><text fill="#888888" font-family="sans-serif" font-size="10" lengthAdjust="spacingAndGlyphs" textLength="392" x="499" y="829.8184">PlantUML diagram generated by SketchIt! (https://bitbucket.org/pmesmeur/sketch.it)</text><text fill="#888888" font-family="sans-serif" font-size="10" lengthAdjust="spacingAndGlyphs" textLength="394" x="497" y="842.3965">For more information about this tool, please contact philippe.mesmeur@gmail.com</text><!--MD5=[7ee2fddf2d476fb8fb939bf4b81e9936]
@startuml

title __NETWORK's Class Diagram__\n

  namespace it.polimi.ingsw {
    namespace network {
      interface it.polimi.ingsw.network.ICommandReceiver {
          {abstract} + onCommand()
          {abstract} + onConnect()
          {abstract} + onDisconnect()
      }
    }
  }
  

  namespace it.polimi.ingsw {
    namespace network {
      interface it.polimi.ingsw.network.INetworkAdapter {
          {abstract} + connect()
          {abstract} + disconnect()
          {abstract} + getClientID()
          {abstract} + removeReceiver()
          {abstract} + setReceiver()
          {abstract} + startServer()
          {abstract} + startServer()
          {abstract} + stopServer()
      }
    }
  }
  

  namespace it.polimi.ingsw {
    namespace network {
      interface it.polimi.ingsw.network.INetworkForwarder {
          {abstract} + getBroadCastID()
          {abstract} + getDefaultPort()
          {abstract} + getServerID()
          {abstract} + send()
      }
    }
  }
  

  namespace it.polimi.ingsw {
    namespace network {
      class it.polimi.ingsw.network.TPCNetwork {
          ~ isRunning : boolean
          + connect()
          + disconnect()
          + getBroadCastID()
          + getClientID()
          + getDefaultPort()
          + getServerID()
          + removeReceiver()
          + send()
          + setReceiver()
          + startServer()
          + startServer()
          + stopServer()
      }
    }
  }
  

  it.polimi.ingsw.network.TPCNetwork .up.|> it.polimi.ingsw.network.INetworkAdapter
  it.polimi.ingsw.network.TPCNetwork o- - it.polimi.ingsw.network.client.Client : client
  it.polimi.ingsw.network.TPCNetwork o- - it.polimi.ingsw.network.ICommandReceiver : receiver
  it.polimi.ingsw.network.TPCNetwork o- - it.polimi.ingsw.network.server.Server : server


right footer


PlantUML diagram generated by SketchIt! (https://bitbucket.org/pmesmeur/sketch.it)
For more information about this tool, please contact philippe.mesmeur@gmail.com
endfooter

@enduml

PlantUML version 1.2020.14(Sat Jun 20 16:14:34 CEST 2020)
(GPL source distribution)
Java Runtime: Java(TM) SE Runtime Environment
JVM: Java HotSpot(TM) 64-Bit Server VM
Default Encoding: Cp1252
Language: it
Country: IT
--></g></svg>